{
date = "2013-07-18 14:13:54 +0000";
designer = "Ryan Troy ford";
designerURL = "http://www.ryantroyford.com";
familyName = "Central Union Mission Filled";
fontMaster = (
{
ascender = 800;
capHeight = 700;
descender = "-200";
id = "473527B4-5F59-4C8B-BB4C-D011658D887A";
xHeight = 500;
}
);
glyphs = (
{
glyphname = "A";
lastChange = "2013-07-19 15:17:58 -0500";
layers = (
{
layerId = "473527B4-5F59-4C8B-BB4C-D011658D887A";
name = "Regular";
paths = (
{
closed = 1;
nodes = (
"55 383 OFFCURVE",
"55 464 OFFCURVE",
"55 544 CURVE",
"55 621 OFFCURVE",
"81 689 OFFCURVE",
"127 744 CURVE SMOOTH",
"178 799 OFFCURVE",
"242 833 OFFCURVE",
"314 838 CURVE SMOOTH",
"399 850 OFFCURVE",
"480 825 OFFCURVE",
"540 774 CURVE SMOOTH",
"603 719 OFFCURVE",
"633 655 OFFCURVE",
"646 583 CURVE SMOOTH",
"646 561 OFFCURVE",
"646 544 OFFCURVE",
"646 527 CURVE SMOOTH",
"646 361 OFFCURVE",
"646 199 OFFCURVE",
"646 43 CURVE SMOOTH",
"646 29 OFFCURVE",
"646 26 OFFCURVE",
"646 17 CURVE SMOOTH",
"646 4 OFFCURVE",
"642 0 OFFCURVE",
"629 0 CURVE SMOOTH",
"620 0 OFFCURVE",
"616 0 OFFCURVE",
"612 0 CURVE SMOOTH",
"586 0 OFFCURVE",
"552 0 OFFCURVE",
"523 0 CURVE SMOOTH",
"514 0 OFFCURVE",
"510 0 OFFCURVE",
"510 0 CURVE SMOOTH",
"497 0 OFFCURVE",
"493 4 OFFCURVE",
"484 17 CURVE SMOOTH",
"484 26 OFFCURVE",
"484 29 OFFCURVE",
"484 38 CURVE SMOOTH",
"484 119 OFFCURVE",
"484 196 OFFCURVE",
"484 277 CURVE SMOOTH",
"484 306 OFFCURVE",
"480 318 OFFCURVE",
"442 318 CURVE SMOOTH",
"387 318 OFFCURVE",
"323 318 OFFCURVE",
"259 318 CURVE SMOOTH",
"255 318 OFFCURVE",
"255 318 OFFCURVE",
"255 318 CURVE SMOOTH",
"229 318 OFFCURVE",
"217 306 OFFCURVE",
"217 281 CURVE SMOOTH",
"217 199 OFFCURVE",
"217 119 OFFCURVE",
"217 38 CURVE SMOOTH",
"217 29 OFFCURVE",
"217 26 OFFCURVE",
"217 17 CURVE SMOOTH",
"208 4 OFFCURVE",
"204 0 OFFCURVE",
"195 0 CURVE SMOOTH",
"191 0 OFFCURVE",
"187 0 OFFCURVE",
"178 0 CURVE SMOOTH",
"149 0 OFFCURVE",
"123 0 OFFCURVE",
"89 0 CURVE SMOOTH",
"85 0 OFFCURVE",
"85 0 OFFCURVE",
"85 0 CURVE SMOOTH",
"68 0 OFFCURVE",
"55 4 OFFCURVE",
"55 29 CURVE SMOOTH",
"55 29 OFFCURVE",
"55 38 OFFCURVE",
"55 43 CURVE SMOOTH",
"55 123 OFFCURVE",
"55 213 OFFCURVE",
"55 293 CURVE SMOOTH"
);
},
{
closed = 1;
nodes = (
"387 455 OFFCURVE",
"416 455 OFFCURVE",
"446 455 CURVE SMOOTH",
"455 455 OFFCURVE",
"459 455 OFFCURVE",
"459 455 CURVE SMOOTH",
"472 455 OFFCURVE",
"480 464 OFFCURVE",
"484 476 CURVE SMOOTH",
"484 481 OFFCURVE",
"484 489 OFFCURVE",
"484 493 CURVE SMOOTH",
"484 506 OFFCURVE",
"484 527 OFFCURVE",
"484 536 CURVE SMOOTH",
"484 557 OFFCURVE",
"484 574 OFFCURVE",
"480 587 CURVE SMOOTH",
"455 642 OFFCURVE",
"404 680 OFFCURVE",
"340 676 CURVE SMOOTH",
"280 668 OFFCURVE",
"229 634 OFFCURVE",
"221 570 CURVE SMOOTH",
"217 536 OFFCURVE",
"217 515 OFFCURVE",
"217 481 CURVE SMOOTH",
"217 464 OFFCURVE",
"229 455 OFFCURVE",
"246 455 CURVE SMOOTH",
"246 455 OFFCURVE",
"255 455 OFFCURVE",
"255 455 CURVE SMOOTH",
"285 455 OFFCURVE",
"314 455 OFFCURVE",
"353 455 CURVE SMOOTH"
);
}
);
width = 701;
}
);
leftKerningGroup = "30";
rightKerningGroup = "30";
unicode = 0041;
},
{
glyphname = "B";
lastChange = "2013-07-19 15:25:31 -0500";
layers = (
{
layerId = "473527B4-5F59-4C8B-BB4C-D011658D887A";
name = "Regular";
paths = (
{
closed = 1;
nodes = (
"55 553 OFFCURVE",
"55 680 OFFCURVE",
"55 807 CURVE SMOOTH",
"55 814 OFFCURVE",
"56 821 OFFCURVE",
"57 828 CURVE SMOOTH",
"59 839 OFFCURVE",
"66 846 OFFCURVE",
"77 848 CURVE SMOOTH",
"83 849 OFFCURVE",
"88 850 OFFCURVE",
"94 850 CURVE SMOOTH",
"190 850 OFFCURVE",
"287 851 OFFCURVE",
"383 850 CURVE SMOOTH",
"443 849 OFFCURVE",
"495 828 OFFCURVE",
"540 789 CURVE SMOOTH",
"588 748 OFFCURVE",
"615 695 OFFCURVE",
"624 632 CURVE SMOOTH",
"630 586 OFFCURVE",
"623 541 OFFCURVE",
"603 499 CURVE SMOOTH",
"599 489 OFFCURVE",
"593 480 OFFCURVE",
"589 470 CURVE SMOOTH",
"581 456 OFFCURVE",
"581 442 OFFCURVE",
"591 428 CURVE SMOOTH",
"612 401 OFFCURVE",
"631 372 OFFCURVE",
"640 339 CURVE SMOOTH",
"666 246 OFFCURVE",
"650 162 OFFCURVE",
"587 89 CURVE SMOOTH",
"544 39 OFFCURVE",
"489 12 OFFCURVE",
"425 3 CURVE SMOOTH",
"414 1 OFFCURVE",
"402 1 OFFCURVE",
"391 1 CURVE SMOOTH",
"293 1 OFFCURVE",
"194 1 OFFCURVE",
"96 1 CURVE SMOOTH",
"64 1 OFFCURVE",
"55 10 OFFCURVE",
"55 42 CURVE SMOOTH",
"55 170 OFFCURVE",
"55 298 OFFCURVE",
"55 426 CURVE SMOOTH"
);
},
{
closed = 1;
nodes = (
"316 352 OFFCURVE",
"310 352 OFFCURVE",
"303 352 CURVE SMOOTH",
"287 352 OFFCURVE",
"272 353 OFFCURVE",
"256 352 CURVE SMOOTH",
"231 352 OFFCURVE",
"222 342 OFFCURVE",
"221 317 CURVE SMOOTH",
"221 316 OFFCURVE",
"221 316 OFFCURVE",
"221 315 CURVE SMOOTH",
"221 278 OFFCURVE",
"221 241 OFFCURVE",
"221 203 CURVE SMOOTH",
"221 198 OFFCURVE",
"222 193 OFFCURVE",
"223 188 CURVE SMOOTH",
"225 178 OFFCURVE",
"232 171 OFFCURVE",
"242 169 CURVE SMOOTH",
"248 167 OFFCURVE",
"253 167 OFFCURVE",
"258 167 CURVE SMOOTH",
"300 167 OFFCURVE",
"341 166 OFFCURVE",
"383 167 CURVE SMOOTH",
"397 167 OFFCURVE",
"410 170 OFFCURVE",
"423 174 CURVE SMOOTH",
"464 188 OFFCURVE",
"489 229 OFFCURVE",
"484 271 CURVE SMOOTH",
"479 313 OFFCURVE",
"445 348 OFFCURVE",
"402 351 CURVE SMOOTH",
"376 353 OFFCURVE",
"323 352 OFFCURVE",
"323 352 CURVE"
);
},
{
closed = 1;
nodes = (
"315 520 OFFCURVE",
"363 519 OFFCURVE",
"387 522 CURVE SMOOTH",
"419 525 OFFCURVE",
"442 544 OFFCURVE",
"453 575 CURVE SMOOTH",
"465 607 OFFCURVE",
"457 635 OFFCURVE",
"434 659 CURVE SMOOTH",
"416 678 OFFCURVE",
"393 684 OFFCURVE",
"368 684 CURVE SMOOTH",
"332 685 OFFCURVE",
"295 684 OFFCURVE",
"259 684 CURVE SMOOTH",
"254 684 OFFCURVE",
"249 684 OFFCURVE",
"245 683 CURVE SMOOTH",
"231 680 OFFCURVE",
"225 674 OFFCURVE",
"222 661 CURVE SMOOTH",
"222 656 OFFCURVE",
"221 651 OFFCURVE",
"221 646 CURVE SMOOTH",
"221 617 OFFCURVE",
"221 587 OFFCURVE",
"221 558 CURVE SMOOTH",
"221 552 OFFCURVE",
"222 546 OFFCURVE",
"223 541 CURVE SMOOTH",
"225 531 OFFCURVE",
"232 524 OFFCURVE",
"242 522 CURVE SMOOTH",
"247 521 OFFCURVE",
"253 520 OFFCURVE",
"259 520 CURVE SMOOTH",
"278 520 OFFCURVE",
"296 520 OFFCURVE",
"315 520 CURVE"
);
}
);
width = 707;
}
);
leftKerningGroup = "30";
rightKerningGroup = "30";
unicode = 0042;
},
{
glyphname = "C";
lastChange = "2013-07-19 15:25:34 -0500";
layers = (
{
layerId = "473527B4-5F59-4C8B-BB4C-D011658D887A";
name = "Regular";
paths = (
{
closed = 1;
nodes = (
"55 473 OFFCURVE",
"54 522 OFFCURVE",
"55 571 CURVE SMOOTH",
"58 680 OFFCURVE",
"108 760 OFFCURVE",
"202 813 CURVE SMOOTH",
"250 839 OFFCURVE",
"302 848 OFFCURVE",
"356 843 CURVE SMOOTH",
"446 834 OFFCURVE",
"515 790 OFFCURVE",
"564 715 CURVE SMOOTH",
"586 682 OFFCURVE",
"598 645 OFFCURVE",
"603 607 CURVE SMOOTH",
"604 601 OFFCURVE",
"604 596 OFFCURVE",
"603 590 CURVE SMOOTH",
"602 579 OFFCURVE",
"596 572 OFFCURVE",
"584 569 CURVE SMOOTH",
"579 568 OFFCURVE",
"574 568 OFFCURVE",
"569 568 CURVE SMOOTH",
"539 568 OFFCURVE",
"509 568 OFFCURVE",
"479 568 CURVE SMOOTH",
"473 568 OFFCURVE",
"468 568 OFFCURVE",
"463 569 CURVE SMOOTH",
"452 572 OFFCURVE",
"446 578 OFFCURVE",
"442 587 CURVE SMOOTH",
"437 600 OFFCURVE",
"433 614 OFFCURVE",
"426 625 CURVE SMOOTH",
"388 688 OFFCURVE",
"312 696 OFFCURVE",
"263 657 CURVE SMOOTH",
"234 634 OFFCURVE",
"218 604 OFFCURVE",
"218 567 CURVE SMOOTH",
"218 471 OFFCURVE",
"218 374 OFFCURVE",
"218 278 CURVE SMOOTH",
"219 232 OFFCURVE",
"241 198 OFFCURVE",
"280 176 CURVE SMOOTH",
"317 156 OFFCURVE",
"371 163 OFFCURVE",
"402 191 CURVE SMOOTH",
"420 207 OFFCURVE",
"432 226 OFFCURVE",
"439 249 CURVE SMOOTH",
"445 267 OFFCURVE",
"454 275 OFFCURVE",
"474 275 CURVE SMOOTH",
"507 276 OFFCURVE",
"540 276 OFFCURVE",
"574 275 CURVE SMOOTH",
"581 275 OFFCURVE",
"588 273 OFFCURVE",
"594 269 CURVE SMOOTH",
"604 263 OFFCURVE",
"605 252 OFFCURVE",
"604 242 CURVE SMOOTH",
"600 222 OFFCURVE",
"596 201 OFFCURVE",
"589 181 CURVE SMOOTH",
"568 121 OFFCURVE",
"529 74 OFFCURVE",
"475 41 CURVE SMOOTH",
"434 16 OFFCURVE",
"390 2 OFFCURVE",
"342 0 CURVE SMOOTH",
"286 -2 OFFCURVE",
"234 11 OFFCURVE",
"187 40 CURVE SMOOTH",
"113 86 OFFCURVE",
"70 153 OFFCURVE",
"57 239 CURVE SMOOTH",
"55 251 OFFCURVE",
"55 262 OFFCURVE",
"55 274 CURVE SMOOTH",
"55 323 OFFCURVE",
"55 373 OFFCURVE",
"55 423 CURVE",
"55 423 OFFCURVE",
"55 423 OFFCURVE",
"55 423 CURVE"
);
}
);
width = 659;
}
);
leftKerningGroup = "30";
rightKerningGroup = "30";
unicode = 0043;
},
{
glyphname = "D";
lastChange = "2013-07-19 15:25:38 -0500";
layers = (
{
layerId = "473527B4-5F59-4C8B-BB4C-D011658D887A";
name = "Regular";
paths = (
{
closed = 1;
nodes = (
"55 552 OFFCURVE",
"55 679 OFFCURVE",
"55 806 CURVE SMOOTH",
"55 813 OFFCURVE",
"56 820 OFFCURVE",
"57 827 CURVE SMOOTH",
"59 838 OFFCURVE",
"66 845 OFFCURVE",
"77 847 CURVE SMOOTH",
"83 848 OFFCURVE",
"88 849 OFFCURVE",
"94 849 CURVE SMOOTH",
"176 849 OFFCURVE",
"259 850 OFFCURVE",
"342 849 CURVE SMOOTH",
"409 848 OFFCURVE",
"468 823 OFFCURVE",
"518 778 CURVE SMOOTH",
"569 732 OFFCURVE",
"599 675 OFFCURVE",
"608 607 CURVE SMOOTH",
"609 597 OFFCURVE",
"610 587 OFFCURVE",
"610 577 CURVE SMOOTH",
"610 476 OFFCURVE",
"611 374 OFFCURVE",
"610 272 CURVE SMOOTH",
"609 200 OFFCURVE",
"582 137 OFFCURVE",
"532 85 CURVE SMOOTH",
"487 38 OFFCURVE",
"432 11 OFFCURVE",
"367 2 CURVE SMOOTH",
"356 1 OFFCURVE",
"345 0 OFFCURVE",
"333 0 CURVE SMOOTH",
"255 0 OFFCURVE",
"176 0 OFFCURVE",
"98 0 CURVE SMOOTH",
"64 0 OFFCURVE",
"55 9 OFFCURVE",
"55 42 CURVE SMOOTH",
"55 170 OFFCURVE",
"55 297 OFFCURVE",
"55 425 CURVE SMOOTH"
);
},
{
closed = 1;
nodes = (
"220 355 OFFCURVE",
"220 284 OFFCURVE",
"220 214 CURVE SMOOTH",
"220 209 OFFCURVE",
"220 203 OFFCURVE",
"221 197 CURVE SMOOTH",
"222 176 OFFCURVE",
"231 166 OFFCURVE",
"253 166 CURVE SMOOTH",
"282 165 OFFCURVE",
"311 165 OFFCURVE",
"341 167 CURVE SMOOTH",
"380 170 OFFCURVE",
"409 189 OFFCURVE",
"429 223 CURVE SMOOTH",
"441 243 OFFCURVE",
"445 265 OFFCURVE",
"445 288 CURVE SMOOTH",
"445 373 OFFCURVE",
"445 459 OFFCURVE",
"445 545 CURVE SMOOTH",
"445 557 OFFCURVE",
"444 569 OFFCURVE",
"443 580 CURVE SMOOTH",
"439 634 OFFCURVE",
"396 678 OFFCURVE",
"343 682 CURVE SMOOTH",
"315 684 OFFCURVE",
"286 684 OFFCURVE",
"258 684 CURVE SMOOTH",
"230 684 OFFCURVE",
"221 674 OFFCURVE",
"220 646 CURVE SMOOTH",
"220 641 OFFCURVE",
"220 636 OFFCURVE",
"220 630 CURVE SMOOTH",
"220 562 OFFCURVE",
"220 493 OFFCURVE",
"220 425 CURVE SMOOTH"
);
}
);
width = 665;
}
);
leftKerningGroup = "30";
rightKerningGroup = "30";
unicode = 0044;
},
{
glyphname = "E";
lastChange = "2013-07-19 15:25:42 -0500";
layers = (
{
layerId = "473527B4-5F59-4C8B-BB4C-D011658D887A";
name = "Regular";
paths = (
{
closed = 1;
nodes = (
"55 555 OFFCURVE",
"55 682 OFFCURVE",
"56 809 CURVE SMOOTH",
"56 816 OFFCURVE",
"56 823 OFFCURVE",
"57 830 CURVE SMOOTH",
"59 841 OFFCURVE",
"66 848 OFFCURVE",
"77 850 CURVE SMOOTH",
"83 851 OFFCURVE",
"88 852 OFFCURVE",
"94 852 CURVE SMOOTH",
"230 852 OFFCURVE",
"333 852 OFFCURVE",
"469 852 CURVE SMOOTH",
"471 852 OFFCURVE",
"474 852 OFFCURVE",
"476 852 CURVE SMOOTH",
"497 850 OFFCURVE",
"507 841 OFFCURVE",
"507 820 CURVE SMOOTH",
"508 786 OFFCURVE",
"508 753 OFFCURVE",
"507 719 CURVE SMOOTH",
"507 698 OFFCURVE",
"497 688 OFFCURVE",
"476 687 CURVE SMOOTH",
"468 687 OFFCURVE",
"460 687 OFFCURVE",
"451 687 CURVE SMOOTH",
"381 687 OFFCURVE",
"343 687 OFFCURVE",
"273 687 CURVE SMOOTH",
"267 687 OFFCURVE",
"262 687 OFFCURVE",
"257 687 CURVE SMOOTH",
"230 687 OFFCURVE",
"220 677 OFFCURVE",
"220 650 CURVE SMOOTH",
"220 619 OFFCURVE",
"220 588 OFFCURVE",
"220 556 CURVE SMOOTH",
"220 551 OFFCURVE",
"221 546 OFFCURVE",
"222 541 CURVE SMOOTH",
"224 530 OFFCURVE",
"231 523 OFFCURVE",
"242 521 CURVE SMOOTH",
"247 520 OFFCURVE",
"253 519 OFFCURVE",
"259 519 CURVE SMOOTH",
"288 519 OFFCURVE",
"318 519 OFFCURVE",
"347 519 CURVE SMOOTH",
"351 519 OFFCURVE",
"354 519 OFFCURVE",
"357 519 CURVE SMOOTH",
"380 518 OFFCURVE",
"391 508 OFFCURVE",
"391 485 CURVE SMOOTH",
"391 453 OFFCURVE",
"391 420 OFFCURVE",
"391 387 CURVE SMOOTH",
"391 364 OFFCURVE",
"380 353 OFFCURVE",
"357 353 CURVE SMOOTH",
"329 353 OFFCURVE",
"301 353 OFFCURVE",
"273 353 CURVE SMOOTH",
"267 353 OFFCURVE",
"260 353 OFFCURVE",
"254 353 CURVE SMOOTH",
"231 352 OFFCURVE",
"221 342 OFFCURVE",
"220 319 CURVE SMOOTH",
"220 280 OFFCURVE",
"220 241 OFFCURVE",
"220 202 CURVE SMOOTH",
"221 178 OFFCURVE",
"231 168 OFFCURVE",
"256 168 CURVE SMOOTH",
"326 168 OFFCURVE",
"365 168 OFFCURVE",
"434 168 CURVE SMOOTH",
"450 168 OFFCURVE",
"466 168 OFFCURVE",
"482 168 CURVE SMOOTH",
"485 168 OFFCURVE",
"488 168 OFFCURVE",
"491 168 CURVE SMOOTH",
"512 167 OFFCURVE",
"522 157 OFFCURVE",
"523 136 CURVE SMOOTH",
"523 102 OFFCURVE",
"523 68 OFFCURVE",
"523 34 CURVE SMOOTH",
"522 13 OFFCURVE",
"512 3 OFFCURVE",
"490 2 CURVE SMOOTH",
"485 2 OFFCURVE",
"479 2 OFFCURVE",
"474 2 CURVE SMOOTH",
"338 2 OFFCURVE",
"234 2 OFFCURVE",
"98 2 CURVE SMOOTH",
"91 2 OFFCURVE",
"84 3 OFFCURVE",
"77 4 CURVE SMOOTH",
"66 6 OFFCURVE",
"59 13 OFFCURVE",
"57 24 CURVE SMOOTH",
"56 31 OFFCURVE",
"56 38 OFFCURVE",
"56 45 CURVE SMOOTH",
"55 172 OFFCURVE",
"55 300 OFFCURVE",
"55 427 CURVE SMOOTH"
);
}
);
width = 578;
}
);
leftKerningGroup = "30";
rightKerningGroup = "30";
unicode = 0045;
},
{
glyphname = "F";
lastChange = "2013-07-19 15:25:45 -0500";
layers = (
{
layerId = "473527B4-5F59-4C8B-BB4C-D011658D887A";
name = "Regular";
paths = (
{
closed = 1;
nodes = (
"55 552 OFFCURVE",
"55 679 OFFCURVE",
"55 807 CURVE SMOOTH",
"55 814 OFFCURVE",
"55 821 OFFCURVE",
"57 829 CURVE SMOOTH",
"59 839 OFFCURVE",
"66 846 OFFCURVE",
"76 848 CURVE SMOOTH",
"82 849 OFFCURVE",
"88 850 OFFCURVE",
"94 850 CURVE SMOOTH",
"221 850 OFFCURVE",
"348 850 OFFCURVE",
"476 850 CURVE SMOOTH",
"478 850 OFFCURVE",
"481 850 OFFCURVE",
"483 850 CURVE SMOOTH",
"504 848 OFFCURVE",
"514 839 OFFCURVE",
"514 819 CURVE SMOOTH",
"515 785 OFFCURVE",
"515 751 OFFCURVE",
"514 717 CURVE SMOOTH",
"514 696 OFFCURVE",
"504 687 OFFCURVE",
"483 685 CURVE SMOOTH",
"475 685 OFFCURVE",
"468 685 OFFCURVE",
"460 685 CURVE SMOOTH",
"397 685 OFFCURVE",
"334 685 OFFCURVE",
"271 685 CURVE SMOOTH",
"266 685 OFFCURVE",
"260 685 OFFCURVE",
"254 685 CURVE SMOOTH",
"230 684 OFFCURVE",
"220 674 OFFCURVE",
"220 650 CURVE SMOOTH",
"219 617 OFFCURVE",
"219 585 OFFCURVE",
"220 552 CURVE SMOOTH",
"220 541 OFFCURVE",
"221 529 OFFCURVE",
"231 524 CURVE SMOOTH",
"238 520 OFFCURVE",
"248 518 OFFCURVE",
"256 517 CURVE SMOOTH",
"288 517 OFFCURVE",
"319 517 OFFCURVE",
"351 517 CURVE SMOOTH",
"356 517 OFFCURVE",
"362 516 OFFCURVE",
"368 515 CURVE SMOOTH",
"380 513 OFFCURVE",
"387 506 OFFCURVE",
"389 494 CURVE SMOOTH",
"390 489 OFFCURVE",
"390 484 OFFCURVE",
"390 478 CURVE SMOOTH",
"391 449 OFFCURVE",
"390 419 OFFCURVE",
"390 389 CURVE SMOOTH",
"390 388 OFFCURVE",
"390 388 OFFCURVE",
"390 387 CURVE SMOOTH",
"390 361 OFFCURVE",
"380 351 OFFCURVE",
"354 351 CURVE SMOOTH",
"323 351 OFFCURVE",
"291 351 OFFCURVE",
"259 351 CURVE SMOOTH",
"254 351 OFFCURVE",
"248 350 OFFCURVE",
"243 349 CURVE SMOOTH",
"230 347 OFFCURVE",
"223 340 OFFCURVE",
"221 328 CURVE SMOOTH",
"220 322 OFFCURVE",
"220 316 OFFCURVE",
"220 310 CURVE SMOOTH",
"220 221 OFFCURVE",
"220 131 OFFCURVE",
"220 42 CURVE SMOOTH",
"219 8 OFFCURVE",
"211 0 OFFCURVE",
"177 0 CURVE SMOOTH",
"150 0 OFFCURVE",
"124 0 OFFCURVE",
"97 0 CURVE SMOOTH",
"94 0 OFFCURVE",
"91 0 OFFCURVE",
"88 0 CURVE SMOOTH",
"66 1 OFFCURVE",
"56 11 OFFCURVE",
"55 33 CURVE SMOOTH",
"55 42 OFFCURVE",
"55 50 OFFCURVE",
"55 59 CURVE",
"55 181 OFFCURVE",
"55 303 OFFCURVE",
"55 425 CURVE",
"55 425 OFFCURVE",
"55 425 OFFCURVE",
"55 425 CURVE"
);
}
);
width = 516;
}
);
leftKerningGroup = "30";
rightKerningGroup = "30";
unicode = 0046;
},
{
glyphname = "G";
lastChange = "2013-07-19 15:25:48 -0500";
layers = (
{
layerId = "473527B4-5F59-4C8B-BB4C-D011658D887A";
name = "Regular";
paths = (
{
closed = 1;
nodes = (
"55 470 OFFCURVE",
"54 519 OFFCURVE",
"55 568 CURVE SMOOTH",
"58 676 OFFCURVE",
"107 756 OFFCURVE",
"201 808 CURVE SMOOTH",
"249 835 OFFCURVE",
"300 844 OFFCURVE",
"354 838 CURVE SMOOTH",
"459 827 OFFCURVE",
"533 772 OFFCURVE",
"578 678 CURVE SMOOTH",
"590 654 OFFCURVE",
"596 628 OFFCURVE",
"600 602 CURVE SMOOTH",
"601 596 OFFCURVE",
"600 590 OFFCURVE",
"599 585 CURVE SMOOTH",
"598 575 OFFCURVE",
"592 569 OFFCURVE",
"582 567 CURVE SMOOTH",
"577 565 OFFCURVE",
"572 565 OFFCURVE",
"568 565 CURVE SMOOTH",
"536 564 OFFCURVE",
"505 564 OFFCURVE",
"474 565 CURVE SMOOTH",
"467 565 OFFCURVE",
"459 566 OFFCURVE",
"453 569 CURVE SMOOTH",
"443 573 OFFCURVE",
"439 582 OFFCURVE",
"437 592 CURVE SMOOTH",
"430 614 OFFCURVE",
"418 632 OFFCURVE",
"402 648 CURVE SMOOTH",
"362 685 OFFCURVE",
"295 685 OFFCURVE",
"256 649 CURVE SMOOTH",
"229 624 OFFCURVE",
"217 594 OFFCURVE",
"217 559 CURVE SMOOTH",
"217 466 OFFCURVE",
"217 373 OFFCURVE",
"217 279 CURVE SMOOTH",
"217 234 OFFCURVE",
"238 199 OFFCURVE",
"277 176 CURVE SMOOTH",
"313 155 OFFCURVE",
"368 162 OFFCURVE",
"399 189 CURVE SMOOTH",
"414 203 OFFCURVE",
"426 218 OFFCURVE",
"432 237 CURVE SMOOTH",
"438 256 OFFCURVE",
"432 267 OFFCURVE",
"412 269 CURVE SMOOTH",
"398 270 OFFCURVE",
"384 270 OFFCURVE",
"369 270 CURVE SMOOTH",
"337 270 OFFCURVE",
"329 279 OFFCURVE",
"328 311 CURVE SMOOTH",
"328 338 OFFCURVE",
"328 352 OFFCURVE",
"328 379 CURVE SMOOTH",
"328 383 OFFCURVE",
"328 386 OFFCURVE",
"329 390 CURVE SMOOTH",
"331 409 OFFCURVE",
"339 417 OFFCURVE",
"358 419 CURVE SMOOTH",
"362 420 OFFCURVE",
"366 420 OFFCURVE",
"370 420 CURVE SMOOTH",
"434 420 OFFCURVE",
"498 420 OFFCURVE",
"562 420 CURVE SMOOTH",
"595 420 OFFCURVE",
"603 411 OFFCURVE",
"603 379 CURVE SMOOTH",
"603 342 OFFCURVE",
"604 318 OFFCURVE",
"603 281 CURVE SMOOTH",
"602 242 OFFCURVE",
"597 204 OFFCURVE",
"581 168 CURVE SMOOTH",
"551 100 OFFCURVE",
"502 50 OFFCURVE",
"434 21 CURVE SMOOTH",
"376 -3 OFFCURVE",
"316 -6 OFFCURVE",
"256 10 CURVE SMOOTH",
"188 29 OFFCURVE",
"135 69 OFFCURVE",
"96 129 CURVE SMOOTH",
"75 161 OFFCURVE",
"63 197 OFFCURVE",
"57 235 CURVE SMOOTH",
"56 247 OFFCURVE",
"55 259 OFFCURVE",
"55 271 CURVE SMOOTH",
"55 321 OFFCURVE",
"55 371 OFFCURVE",
"55 422 CURVE",
"55 422 OFFCURVE",
"55 422 OFFCURVE",
"55 422 CURVE"
);
}
);
width = 658;
}
);
leftKerningGroup = "30";
rightKerningGroup = "30";
unicode = 0047;
},
{
glyphname = "H";
lastChange = "2013-07-19 15:25:54 -0500";
layers = (
{
layerId = "473527B4-5F59-4C8B-BB4C-D011658D887A";
name = "Regular";
paths = (
{
closed = 1;
nodes = (
"658 298 OFFCURVE",
"658 171 OFFCURVE",
"658 44 CURVE SMOOTH",
"658 38 OFFCURVE",
"658 32 OFFCURVE",
"658 25 CURVE SMOOTH",
"651 13 OFFCURVE",
"645 6 OFFCURVE",
"639 0 CURVE SMOOTH",
"632 0 OFFCURVE",
"626 0 OFFCURVE",
"620 0 CURVE SMOOTH",
"588 0 OFFCURVE",
"556 0 OFFCURVE",
"531 0 CURVE SMOOTH",
"525 0 OFFCURVE",
"525 0 OFFCURVE",
"525 0 CURVE SMOOTH",
"499 6 OFFCURVE",
"493 13 OFFCURVE",
"493 32 CURVE SMOOTH",
"493 38 OFFCURVE",
"493 38 OFFCURVE",
"493 44 CURVE",
"493 140 OFFCURVE",
"493 235 OFFCURVE",
"493 330 CURVE SMOOTH",
"493 368 OFFCURVE",
"480 374 OFFCURVE",
"448 374 CURVE SMOOTH",
"385 374 OFFCURVE",
"322 374 OFFCURVE",
"258 374 CURVE SMOOTH",
"258 374 OFFCURVE",
"258 374 OFFCURVE",
"258 374 CURVE SMOOTH",
"226 374 OFFCURVE",
"220 362 OFFCURVE",
"220 336 CURVE SMOOTH",
"220 241 OFFCURVE",
"220 140 OFFCURVE",
"220 44 CURVE SMOOTH",
"220 13 OFFCURVE",
"207 0 OFFCURVE",
"176 0 CURVE SMOOTH",
"150 0 OFFCURVE",
"119 0 OFFCURVE",
"93 0 CURVE SMOOTH",
"93 0 OFFCURVE",
"87 0 OFFCURVE",
"87 0 CURVE SMOOTH",
"62 0 OFFCURVE",
"55 13 OFFCURVE",
"55 32 CURVE SMOOTH",
"55 38 OFFCURVE",
"55 51 OFFCURVE",
"55 57 CURVE",
"55 304 OFFCURVE",
"55 558 OFFCURVE",
"55 806 CURVE SMOOTH",
"55 818 OFFCURVE",
"55 825 OFFCURVE",
"55 831 CURVE SMOOTH",
"55 844 OFFCURVE",
"62 850 OFFCURVE",
"74 850 CURVE SMOOTH",
"81 850 OFFCURVE",
"87 850 OFFCURVE",
"93 850 CURVE SMOOTH",
"119 850 OFFCURVE",
"150 850 OFFCURVE",
"182 850 CURVE SMOOTH",
"182 850 OFFCURVE",
"182 850 OFFCURVE",
"188 850 CURVE SMOOTH",
"207 850 OFFCURVE",
"214 844 OFFCURVE",
"220 818 CURVE SMOOTH",
"220 818 OFFCURVE",
"220 812 OFFCURVE",
"220 806 CURVE SMOOTH",
"220 723 OFFCURVE",
"220 641 OFFCURVE",
"220 558 CURVE SMOOTH",
"220 520 OFFCURVE",
"226 514 OFFCURVE",
"258 514 CURVE SMOOTH",
"322 514 OFFCURVE",
"385 514 OFFCURVE",
"448 514 CURVE SMOOTH",
"448 514 OFFCURVE",
"455 514 OFFCURVE",
"455 514 CURVE SMOOTH",
"480 514 OFFCURVE",
"493 526 OFFCURVE",
"493 552 CURVE SMOOTH",
"493 641 OFFCURVE",
"493 723 OFFCURVE",
"493 812 CURVE SMOOTH",
"493 844 OFFCURVE",
"499 850 OFFCURVE",
"531 850 CURVE SMOOTH",
"563 850 OFFCURVE",
"588 850 OFFCURVE",
"620 850 CURVE SMOOTH",
"620 850 OFFCURVE",
"626 850 OFFCURVE",
"626 850 CURVE SMOOTH",
"645 850 OFFCURVE",
"658 844 OFFCURVE",
"658 818 CURVE SMOOTH",
"658 812 OFFCURVE",
"658 806 OFFCURVE",
"658 793 CURVE SMOOTH",
"658 672 OFFCURVE",
"658 552 OFFCURVE",
"658 425 CURVE",
"658 425 OFFCURVE",
"658 425 OFFCURVE",
"658 425 CURVE"
);
}
);
width = 713;
}
);
leftKerningGroup = "30";
rightKerningGroup = "30";
unicode = 0048;
},
{
glyphname = "I";
lastChange = "2013-07-19 15:25:57 -0500";
layers = (
{
layerId = "473527B4-5F59-4C8B-BB4C-D011658D887A";
name = "Regular";
paths = (
{
closed = 1;
nodes = (
"193 0 OFFCURVE",
"143 0 OFFCURVE",
"93 0 CURVE SMOOTH",
"62 0 OFFCURVE",
"55 12 OFFCURVE",
"55 44 CURVE SMOOTH",
"55 69 OFFCURVE",
"55 100 OFFCURVE",
"55 125 CURVE SMOOTH",
"55 131 OFFCURVE",
"55 137 OFFCURVE",
"55 137 CURVE SMOOTH",
"55 156 OFFCURVE",
"62 163 OFFCURVE",
"80 163 CURVE SMOOTH",
"87 169 OFFCURVE",
"87 169 OFFCURVE",
"93 169 CURVE SMOOTH",
"99 169 OFFCURVE",
"112 169 OFFCURVE",
"124 169 CURVE SMOOTH",
"149 169 OFFCURVE",
"156 175 OFFCURVE",
"156 200 CURVE SMOOTH",
"156 350 OFFCURVE",
"156 500 OFFCURVE",
"156 650 CURVE SMOOTH",
"156 650 OFFCURVE",
"156 656 OFFCURVE",
"156 663 CURVE SMOOTH",
"156 675 OFFCURVE",
"149 681 OFFCURVE",
"137 681 CURVE SMOOTH",
"124 681 OFFCURVE",
"112 681 OFFCURVE",
"99 681 CURVE SMOOTH",
"87 681 OFFCURVE",
"80 681 OFFCURVE",
"74 688 CURVE SMOOTH",
"62 688 OFFCURVE",
"55 694 OFFCURVE",
"55 706 CURVE SMOOTH",
"55 713 OFFCURVE",
"55 713 OFFCURVE",
"55 719 CURVE SMOOTH",
"55 750 OFFCURVE",
"55 781 OFFCURVE",
"55 813 CURVE SMOOTH",
"55 813 OFFCURVE",
"55 819 OFFCURVE",
"55 825 CURVE SMOOTH",
"55 838 OFFCURVE",
"62 844 OFFCURVE",
"74 844 CURVE SMOOTH",
"80 844 OFFCURVE",
"87 850 OFFCURVE",
"93 850 CURVE SMOOTH",
"193 850 OFFCURVE",
"287 850 OFFCURVE",
"387 850 CURVE SMOOTH",
"393 850 OFFCURVE",
"393 850 OFFCURVE",
"393 844 CURVE SMOOTH",
"418 844 OFFCURVE",
"424 838 OFFCURVE",
"424 813 CURVE SMOOTH",
"431 781 OFFCURVE",
"431 750 OFFCURVE",
"424 713 CURVE SMOOTH",
"424 694 OFFCURVE",
"418 688 OFFCURVE",
"393 681 CURVE SMOOTH",
"381 681 OFFCURVE",
"368 681 OFFCURVE",
"356 681 CURVE SMOOTH",
"356 681 OFFCURVE",
"349 681 OFFCURVE",
"343 681 CURVE SMOOTH",
"331 681 OFFCURVE",
"324 675 OFFCURVE",
"324 663 CURVE SMOOTH",
"324 656 OFFCURVE",
"318 650 OFFCURVE",
"318 644 CURVE SMOOTH",
"318 500 OFFCURVE",
"318 350 OFFCURVE",
"318 206 CURVE SMOOTH",
"318 200 OFFCURVE",
"318 200 OFFCURVE",
"318 200 CURVE SMOOTH",
"324 175 OFFCURVE",
"331 169 OFFCURVE",
"356 169 CURVE SMOOTH",
"368 169 OFFCURVE",
"381 169 OFFCURVE",
"387 169 CURVE SMOOTH",
"393 169 OFFCURVE",
"399 163 OFFCURVE",
"406 163 CURVE SMOOTH",
"418 163 OFFCURVE",
"424 156 OFFCURVE",
"424 144 CURVE SMOOTH",
"424 137 OFFCURVE",
"424 131 OFFCURVE",
"424 125 CURVE SMOOTH",
"424 100 OFFCURVE",
"424 69 OFFCURVE",
"424 44 CURVE SMOOTH",
"424 37 OFFCURVE",
"424 37 OFFCURVE",
"424 37 CURVE SMOOTH",
"424 12 OFFCURVE",
"418 6 OFFCURVE",
"393 0 CURVE SMOOTH",
"387 0 OFFCURVE",
"381 0 OFFCURVE",
"374 0 CURVE SMOOTH",
"331 0 OFFCURVE",
"287 0 OFFCURVE",
"243 0 CURVE SMOOTH",
"243 0 OFFCURVE",
"243 0 OFFCURVE",
"243 0 CURVE SMOOTH"
);
}
);
width = 484;
}
);
leftKerningGroup = "30";
rightKerningGroup = "30";
unicode = 0049;
},
{
glyphname = "J";
lastChange = "2013-07-19 15:26:01 -0500";
layers = (
{
layerId = "473527B4-5F59-4C8B-BB4C-D011658D887A";
name = "Regular";
paths = (
{
closed = 1;
nodes = (
"609 461 OFFCURVE",
"609 377 OFFCURVE",
"609 294 CURVE SMOOTH",
"609 258 OFFCURVE",
"605 223 OFFCURVE",
"594 189 CURVE SMOOTH",
"580 148 OFFCURVE",
"558 111 OFFCURVE",
"528 81 CURVE SMOOTH",
"478 31 OFFCURVE",
"418 4 OFFCURVE",
"347 0 CURVE SMOOTH",
"273 -5 OFFCURVE",
"207 17 OFFCURVE",
"151 65 CURVE SMOOTH",
"96 111 OFFCURVE",
"64 171 OFFCURVE",
"55 242 CURVE SMOOTH",
"52 265 OFFCURVE",
"63 277 OFFCURVE",
"88 277 CURVE SMOOTH",
"119 277 OFFCURVE",
"151 277 OFFCURVE",
"182 277 CURVE SMOOTH",
"186 277 OFFCURVE",
"189 276 OFFCURVE",
"192 276 CURVE SMOOTH",
"206 274 OFFCURVE",
"215 266 OFFCURVE",
"219 253 CURVE SMOOTH",
"226 232 OFFCURVE",
"236 212 OFFCURVE",
"253 196 CURVE SMOOTH",
"286 166 OFFCURVE",
"325 156 OFFCURVE",
"367 171 CURVE SMOOTH",
"411 187 OFFCURVE",
"436 219 OFFCURVE",
"442 265 CURVE SMOOTH",
"443 275 OFFCURVE",
"443 285 OFFCURVE",
"443 295 CURVE SMOOTH",
"443 410 OFFCURVE",
"443 525 OFFCURVE",
"443 640 CURVE SMOOTH",
"443 646 OFFCURVE",
"443 653 OFFCURVE",
"442 659 CURVE SMOOTH",
"440 670 OFFCURVE",
"433 677 OFFCURVE",
"422 679 CURVE SMOOTH",
"416 680 OFFCURVE",
"411 681 OFFCURVE",
"405 681 CURVE SMOOTH",
"379 681 OFFCURVE",
"354 681 OFFCURVE",
"328 681 CURVE SMOOTH",
"324 681 OFFCURVE",
"321 681 OFFCURVE",
"317 681 CURVE SMOOTH",
"296 683 OFFCURVE",
"286 692 OFFCURVE",
"286 713 CURVE SMOOTH",
"285 746 OFFCURVE",
"285 780 OFFCURVE",
"286 814 CURVE SMOOTH",
"286 834 OFFCURVE",
"296 843 OFFCURVE",
"317 845 CURVE SMOOTH",
"320 845 OFFCURVE",
"323 845 OFFCURVE",
"326 845 CURVE SMOOTH",
"406 845 OFFCURVE",
"485 845 OFFCURVE",
"564 845 CURVE SMOOTH",
"571 845 OFFCURVE",
"579 845 OFFCURVE",
"585 843 CURVE SMOOTH",
"597 841 OFFCURVE",
"605 835 OFFCURVE",
"607 822 CURVE SMOOTH",
"608 816 OFFCURVE",
"609 809 OFFCURVE",
"609 802 CURVE SMOOTH",
"609 716 OFFCURVE",
"609 630 OFFCURVE",
"609 544 CURVE SMOOTH"
);
}
);
width = 664;
}
);
leftKerningGroup = "30";
rightKerningGroup = "30";
unicode = 004A;
},
{
glyphname = "K";
lastChange = "2013-07-19 15:26:12 -0500";
layers = (
{
layerId = "473527B4-5F59-4C8B-BB4C-D011658D887A";
name = "Regular";
paths = (
{
closed = 1;
nodes = (
"55 553 OFFCURVE",
"55 680 OFFCURVE",
"55 807 CURVE SMOOTH",
"55 814 OFFCURVE",
"56 821 OFFCURVE",
"57 827 CURVE SMOOTH",
"59 839 OFFCURVE",
"66 846 OFFCURVE",
"78 848 CURVE SMOOTH",
"83 849 OFFCURVE",
"88 850 OFFCURVE",
"94 850 CURVE SMOOTH",
"124 850 OFFCURVE",
"154 850 OFFCURVE",
"184 850 CURVE SMOOTH",
"188 850 OFFCURVE",
"191 850 OFFCURVE",
"195 849 CURVE SMOOTH",
"212 847 OFFCURVE",
"219 840 OFFCURVE",
"222 823 CURVE SMOOTH",
"222 818 OFFCURVE",
"222 812 OFFCURVE",
"222 807 CURVE SMOOTH",
"222 731 OFFCURVE",
"222 655 OFFCURVE",
"223 579 CURVE SMOOTH",
"223 546 OFFCURVE",
"231 537 OFFCURVE",
"264 537 CURVE SMOOTH",
"287 537 OFFCURVE",
"311 537 OFFCURVE",
"335 537 CURVE SMOOTH",
"364 538 OFFCURVE",
"389 548 OFFCURVE",
"408 573 CURVE SMOOTH",
"421 591 OFFCURVE",
"425 611 OFFCURVE",
"425 633 CURVE SMOOTH",
"425 691 OFFCURVE",
"425 749 OFFCURVE",
"425 808 CURVE SMOOTH",
"425 841 OFFCURVE",
"434 850 OFFCURVE",
"467 850 CURVE SMOOTH",
"496 850 OFFCURVE",
"524 850 OFFCURVE",
"552 850 CURVE SMOOTH",
"556 850 OFFCURVE",
"560 850 OFFCURVE",
"565 849 CURVE SMOOTH",
"582 847 OFFCURVE",
"589 840 OFFCURVE",
"591 823 CURVE SMOOTH",
"592 818 OFFCURVE",
"592 812 OFFCURVE",
"592 807 CURVE SMOOTH",
"592 749 OFFCURVE",
"592 691 OFFCURVE",
"592 632 CURVE SMOOTH",
"593 587 OFFCURVE",
"584 544 OFFCURVE",
"564 504 CURVE SMOOTH",
"556 488 OFFCURVE",
"558 474 OFFCURVE",
"568 460 CURVE SMOOTH",
"582 442 OFFCURVE",
"595 424 OFFCURVE",
"606 405 CURVE SMOOTH",
"625 371 OFFCURVE",
"636 334 OFFCURVE",
"636 295 CURVE SMOOTH",
"638 210 OFFCURVE",
"638 124 OFFCURVE",
"638 38 CURVE SMOOTH",
"638 14 OFFCURVE",
"627 4 OFFCURVE",
"603 3 CURVE SMOOTH",
"571 3 OFFCURVE",
"540 3 OFFCURVE",
"508 3 CURVE SMOOTH",
"482 4 OFFCURVE",
"471 14 OFFCURVE",
"471 41 CURVE SMOOTH",
"471 113 OFFCURVE",
"471 186 OFFCURVE",
"471 258 CURVE SMOOTH",
"471 279 OFFCURVE",
"468 300 OFFCURVE",
"460 319 CURVE SMOOTH",
"448 346 OFFCURVE",
"428 362 OFFCURVE",
"399 364 CURVE SMOOTH",
"359 365 OFFCURVE",
"319 365 OFFCURVE",
"279 365 CURVE SMOOTH",
"269 365 OFFCURVE",
"258 365 OFFCURVE",
"247 364 CURVE SMOOTH",
"233 362 OFFCURVE",
"226 355 OFFCURVE",
"224 341 CURVE SMOOTH",
"223 335 OFFCURVE",
"223 329 OFFCURVE",
"223 324 CURVE SMOOTH",
"222 230 OFFCURVE",
"223 137 OFFCURVE",
"222 43 CURVE SMOOTH",
"222 36 OFFCURVE",
"222 29 OFFCURVE",
"220 22 CURVE SMOOTH",
"218 11 OFFCURVE",
"211 5 OFFCURVE",
"201 2 CURVE SMOOTH",
"195 1 OFFCURVE",
"190 0 OFFCURVE",
"184 0 CURVE SMOOTH",
"154 0 OFFCURVE",
"124 0 OFFCURVE",
"94 0 CURVE SMOOTH",
"89 0 OFFCURVE",
"84 1 OFFCURVE",
"79 2 CURVE SMOOTH",
"66 4 OFFCURVE",
"59 12 OFFCURVE",
"57 24 CURVE SMOOTH",
"56 30 OFFCURVE",
"55 37 OFFCURVE",
"55 44 CURVE SMOOTH",
"55 171 OFFCURVE",
"55 298 OFFCURVE",
"55 426 CURVE SMOOTH"
);
}
);
width = 693;
}
);
leftKerningGroup = "30";
rightKerningGroup = "30";
unicode = 004B;
},
{
glyphname = "L";
lastChange = "2013-07-19 15:26:16 -0500";
layers = (
{
layerId = "473527B4-5F59-4C8B-BB4C-D011658D887A";
name = "Regular";
paths = (
{
closed = 1;
nodes = (
"55 553 OFFCURVE",
"55 680 OFFCURVE",
"55 807 CURVE SMOOTH",
"55 814 OFFCURVE",
"55 821 OFFCURVE",
"57 828 CURVE SMOOTH",
"59 839 OFFCURVE",
"66 845 OFFCURVE",
"76 848 CURVE SMOOTH",
"82 849 OFFCURVE",
"87 849 OFFCURVE",
"93 849 CURVE SMOOTH",
"122 850 OFFCURVE",
"152 850 OFFCURVE",
"181 849 CURVE SMOOTH",
"185 849 OFFCURVE",
"190 849 OFFCURVE",
"194 848 CURVE SMOOTH",
"209 846 OFFCURVE",
"216 839 OFFCURVE",
"218 824 CURVE SMOOTH",
"219 818 OFFCURVE",
"219 812 OFFCURVE",
"219 806 CURVE SMOOTH",
"219 608 OFFCURVE",
"219 410 OFFCURVE",
"219 213 CURVE SMOOTH",
"219 204 OFFCURVE",
"220 195 OFFCURVE",
"221 187 CURVE SMOOTH",
"223 175 OFFCURVE",
"230 168 OFFCURVE",
"242 166 CURVE SMOOTH",
"248 165 OFFCURVE",
"254 164 OFFCURVE",
"260 164 CURVE SMOOTH",
"330 164 OFFCURVE",
"401 164 OFFCURVE",
"472 164 CURVE SMOOTH",
"506 164 OFFCURVE",
"514 156 OFFCURVE",
"514 122 CURVE SMOOTH",
"514 95 OFFCURVE",
"514 68 OFFCURVE",
"514 41 CURVE SMOOTH",
"514 37 OFFCURVE",
"514 34 OFFCURVE",
"514 30 CURVE SMOOTH",
"512 10 OFFCURVE",
"504 2 OFFCURVE",
"484 0 CURVE SMOOTH",
"480 0 OFFCURVE",
"476 0 OFFCURVE",
"472 0 CURVE SMOOTH",
"347 0 OFFCURVE",
"222 0 OFFCURVE",
"97 0 CURVE SMOOTH",
"63 0 OFFCURVE",
"55 8 OFFCURVE",
"55 42 CURVE SMOOTH",
"55 170 OFFCURVE",
"55 297 OFFCURVE",
"55 425 CURVE SMOOTH"
);
}
);
width = 569;
}
);
leftKerningGroup = "30";
rightKerningGroup = "30";
unicode = 004C;
},
{
glyphname = "M";
lastChange = "2013-07-19 15:26:19 -0500";
layers = (
{
layerId = "473527B4-5F59-4C8B-BB4C-D011658D887A";
name = "Regular";
paths = (
{
closed = 1;
nodes = (
"55 422 OFFCURVE",
"56 515 OFFCURVE",
"55 607 CURVE SMOOTH",
"55 663 OFFCURVE",
"71 713 OFFCURVE",
"107 757 CURVE SMOOTH",
"147 807 OFFCURVE",
"199 835 OFFCURVE",
"263 842 CURVE SMOOTH",
"306 847 OFFCURVE",
"347 841 OFFCURVE",
"386 823 CURVE SMOOTH",
"397 817 OFFCURVE",
"408 812 OFFCURVE",
"418 805 CURVE SMOOTH",
"433 796 OFFCURVE",
"448 797 OFFCURVE",
"462 806 CURVE SMOOTH",
"491 824 OFFCURVE",
"522 837 OFFCURVE",
"556 841 CURVE SMOOTH",
"626 850 OFFCURVE",
"689 834 OFFCURVE",
"743 787 CURVE SMOOTH",
"789 748 OFFCURVE",
"815 698 OFFCURVE",
"823 638 CURVE SMOOTH",
"824 626 OFFCURVE",
"824 614 OFFCURVE",
"824 602 CURVE SMOOTH",
"825 416 OFFCURVE",
"825 229 OFFCURVE",
"825 42 CURVE SMOOTH",
"825 9 OFFCURVE",
"816 0 OFFCURVE",
"782 0 CURVE SMOOTH",
"756 0 OFFCURVE",
"729 0 OFFCURVE",
"702 0 CURVE SMOOTH",
"699 0 OFFCURVE",
"696 0 OFFCURVE",
"693 0 CURVE SMOOTH",
"671 1 OFFCURVE",
"661 11 OFFCURVE",
"660 33 CURVE SMOOTH",
"660 37 OFFCURVE",
"660 41 OFFCURVE",
"660 45 CURVE",
"660 226 OFFCURVE",
"660 408 OFFCURVE",
"660 590 CURVE SMOOTH",
"660 608 OFFCURVE",
"658 625 OFFCURVE",
"649 641 CURVE SMOOTH",
"635 668 OFFCURVE",
"607 682 OFFCURVE",
"579 676 CURVE SMOOTH",
"550 671 OFFCURVE",
"528 648 OFFCURVE",
"524 618 CURVE SMOOTH",
"523 609 OFFCURVE",
"522 601 OFFCURVE",
"522 592 CURVE SMOOTH",
"522 409 OFFCURVE",
"522 227 OFFCURVE",
"522 44 CURVE SMOOTH",
"522 36 OFFCURVE",
"522 29 OFFCURVE",
"520 22 CURVE SMOOTH",
"518 11 OFFCURVE",
"511 5 OFFCURVE",
"501 2 CURVE SMOOTH",
"496 1 OFFCURVE",
"490 0 OFFCURVE",
"485 0 CURVE SMOOTH",
"455 0 OFFCURVE",
"425 0 OFFCURVE",
"395 0 CURVE SMOOTH",
"391 0 OFFCURVE",
"388 1 OFFCURVE",
"385 1 CURVE SMOOTH",
"368 4 OFFCURVE",
"361 11 OFFCURVE",
"359 27 CURVE SMOOTH",
"358 33 OFFCURVE",
"358 38 OFFCURVE",
"358 44 CURVE SMOOTH",
"358 225 OFFCURVE",
"358 406 OFFCURVE",
"357 587 CURVE SMOOTH",
"357 602 OFFCURVE",
"356 618 OFFCURVE",
"351 632 CURVE SMOOTH",
"334 680 OFFCURVE",
"278 691 OFFCURVE",
"244 660 CURVE SMOOTH",
"227 644 OFFCURVE",
"221 624 OFFCURVE",
"220 602 CURVE SMOOTH",
"220 583 OFFCURVE",
"220 564 OFFCURVE",
"220 545 CURVE SMOOTH",
"220 378 OFFCURVE",
"220 211 OFFCURVE",
"220 44 CURVE SMOOTH",
"220 36 OFFCURVE",
"219 29 OFFCURVE",
"218 22 CURVE SMOOTH",
"216 11 OFFCURVE",
"209 4 OFFCURVE",
"198 2 CURVE SMOOTH",
"193 1 OFFCURVE",
"187 0 OFFCURVE",
"182 0 CURVE SMOOTH",
"152 0 OFFCURVE",
"123 0 OFFCURVE",
"94 0 CURVE SMOOTH",
"90 0 OFFCURVE",
"85 1 OFFCURVE",
"82 1 CURVE SMOOTH",
"66 4 OFFCURVE",
"59 11 OFFCURVE",
"56 27 CURVE SMOOTH",
"55 32 OFFCURVE",
"55 38 OFFCURVE",
"55 43 CURVE SMOOTH",
"55 139 OFFCURVE",
"55 234 OFFCURVE",
"55 330 CURVE",
"55 330 OFFCURVE",
"55 330 OFFCURVE",
"55 330 CURVE"
);
}
);
width = 880;
}
);
leftKerningGroup = "30";
rightKerningGroup = "30";
unicode = 004D;
},
{
glyphname = "N";
lastChange = "2013-07-19 15:26:21 -0500";
layers = (
{
layerId = "473527B4-5F59-4C8B-BB4C-D011658D887A";
name = "Regular";
paths = (
{
closed = 1;
nodes = (
"55 551 OFFCURVE",
"55 678 OFFCURVE",
"55 804 CURVE SMOOTH",
"55 811 OFFCURVE",
"55 819 OFFCURVE",
"57 825 CURVE SMOOTH",
"59 836 OFFCURVE",
"66 843 OFFCURVE",
"76 845 CURVE SMOOTH",
"82 846 OFFCURVE",
"87 847 OFFCURVE",
"93 847 CURVE SMOOTH",
"121 847 OFFCURVE",
"149 846 OFFCURVE",
"177 847 CURVE SMOOTH",
"199 847 OFFCURVE",
"214 838 OFFCURVE",
"225 819 CURVE SMOOTH",
"272 737 OFFCURVE",
"319 656 OFFCURVE",
"366 574 CURVE SMOOTH",
"404 508 OFFCURVE",
"442 442 OFFCURVE",
"480 377 CURVE SMOOTH",
"484 370 OFFCURVE",
"488 363 OFFCURVE",
"493 358 CURVE SMOOTH",
"496 355 OFFCURVE",
"502 351 OFFCURVE",
"505 352 CURVE SMOOTH",
"509 353 OFFCURVE",
"513 359 OFFCURVE",
"514 363 CURVE SMOOTH",
"516 373 OFFCURVE",
"517 384 OFFCURVE",
"517 395 CURVE SMOOTH",
"517 531 OFFCURVE",
"517 667 OFFCURVE",
"517 804 CURVE SMOOTH",
"517 811 OFFCURVE",
"517 818 OFFCURVE",
"519 825 CURVE SMOOTH",
"521 836 OFFCURVE",
"528 843 OFFCURVE",
"539 845 CURVE SMOOTH",
"544 846 OFFCURVE",
"549 847 OFFCURVE",
"554 847 CURVE SMOOTH",
"584 847 OFFCURVE",
"614 847 OFFCURVE",
"645 847 CURVE SMOOTH",
"647 847 OFFCURVE",
"649 847 OFFCURVE",
"652 847 CURVE SMOOTH",
"671 845 OFFCURVE",
"680 836 OFFCURVE",
"682 816 CURVE SMOOTH",
"682 812 OFFCURVE",
"682 808 OFFCURVE",
"682 804 CURVE SMOOTH",
"682 550 OFFCURVE",
"682 296 OFFCURVE",
"682 43 CURVE SMOOTH",
"682 36 OFFCURVE",
"681 29 OFFCURVE",
"680 22 CURVE SMOOTH",
"678 11 OFFCURVE",
"671 3 OFFCURVE",
"659 1 CURVE SMOOTH",
"654 0 OFFCURVE",
"648 0 OFFCURVE",
"643 0 CURVE SMOOTH",
"615 0 OFFCURVE",
"586 1 OFFCURVE",
"559 -1 CURVE SMOOTH",
"528 -3 OFFCURVE",
"510 11 OFFCURVE",
"496 36 CURVE SMOOTH",
"465 93 OFFCURVE",
"431 150 OFFCURVE",
"399 207 CURVE SMOOTH",
"354 287 OFFCURVE",
"308 367 OFFCURVE",
"263 447 CURVE SMOOTH",
"257 457 OFFCURVE",
"249 467 OFFCURVE",
"242 477 CURVE SMOOTH",
"239 480 OFFCURVE",
"233 483 OFFCURVE",
"230 482 CURVE SMOOTH",
"227 481 OFFCURVE",
"223 475 OFFCURVE",
"223 471 CURVE SMOOTH",
"221 461 OFFCURVE",
"220 451 OFFCURVE",
"220 440 CURVE SMOOTH",
"220 308 OFFCURVE",
"220 175 OFFCURVE",
"220 42 CURVE SMOOTH",
"220 35 OFFCURVE",
"219 28 OFFCURVE",
"218 21 CURVE SMOOTH",
"216 11 OFFCURVE",
"209 4 OFFCURVE",
"198 2 CURVE SMOOTH",
"193 1 OFFCURVE",
"188 0 OFFCURVE",
"183 0 CURVE SMOOTH",
"152 0 OFFCURVE",
"122 0 OFFCURVE",
"91 0 CURVE SMOOTH",
"88 0 OFFCURVE",
"85 0 OFFCURVE",
"82 1 CURVE SMOOTH",
"65 3 OFFCURVE",
"58 10 OFFCURVE",
"55 27 CURVE SMOOTH",
"55 32 OFFCURVE",
"55 37 OFFCURVE",
"55 43 CURVE",
"55 170 OFFCURVE",
"55 297 OFFCURVE",
"55 424 CURVE SMOOTH"
);
}
);
width = 737;
}
);
leftKerningGroup = "30";
rightKerningGroup = "30";
unicode = 004E;
},
{
glyphname = "O";
lastChange = "2013-07-19 15:26:25 -0500";
layers = (
{
layerId = "473527B4-5F59-4C8B-BB4C-D011658D887A";
name = "Regular";
paths = (
{
closed = 1;
nodes = (
"598 375 OFFCURVE",
"598 325 OFFCURVE",
"598 275 CURVE SMOOTH",
"598 200 OFFCURVE",
"573 131 OFFCURVE",
"511 75 CURVE SMOOTH",
"467 31 OFFCURVE",
"411 12 OFFCURVE",
"348 6 CURVE SMOOTH",
"292 0 OFFCURVE",
"236 12 OFFCURVE",
"186 44 CURVE SMOOTH",
"111 87 OFFCURVE",
"67 156 OFFCURVE",
"55 244 CURVE SMOOTH",
"55 250 OFFCURVE",
"55 263 OFFCURVE",
"55 275 CURVE SMOOTH",
"55 375 OFFCURVE",
"55 469 OFFCURVE",
"55 569 CURVE SMOOTH",
"55 675 OFFCURVE",
"105 756 OFFCURVE",
"205 806 CURVE SMOOTH",
"286 850 OFFCURVE",
"367 850 OFFCURVE",
"448 813 CURVE SMOOTH",
"536 769 OFFCURVE",
"586 694 OFFCURVE",
"598 600 CURVE SMOOTH",
"598 588 OFFCURVE",
"598 575 OFFCURVE",
"598 569 CURVE SMOOTH",
"598 519 OFFCURVE",
"598 469 OFFCURVE",
"598 419 CURVE SMOOTH"
);
},
{
closed = 1;
nodes = (
"217 419 OFFCURVE",
"217 419 OFFCURVE",
"217 419 CURVE",
"217 375 OFFCURVE",
"217 331 OFFCURVE",
"217 288 CURVE SMOOTH",
"217 281 OFFCURVE",
"217 281 OFFCURVE",
"217 281 CURVE SMOOTH",
"217 250 OFFCURVE",
"230 219 OFFCURVE",
"255 200 CURVE SMOOTH",
"298 150 OFFCURVE",
"373 163 OFFCURVE",
"411 213 CURVE SMOOTH",
"430 231 OFFCURVE",
"436 256 OFFCURVE",
"436 288 CURVE SMOOTH",
"436 375 OFFCURVE",
"436 463 OFFCURVE",
"436 550 CURVE SMOOTH",
"436 556 OFFCURVE",
"436 569 OFFCURVE",
"436 575 CURVE SMOOTH",
"430 619 OFFCURVE",
"405 650 OFFCURVE",
"361 669 CURVE SMOOTH",
"317 681 OFFCURVE",
"273 669 OFFCURVE",
"242 638 CURVE SMOOTH",
"223 613 OFFCURVE",
"217 588 OFFCURVE",
"217 563 CURVE SMOOTH",
"217 513 OFFCURVE",
"217 469 OFFCURVE",
"217 419 CURVE"
);
}
);
width = 653;
}
);
leftKerningGroup = "30";
rightKerningGroup = "30";
unicode = 004F;
},
{
glyphname = "P";
lastChange = "2013-07-19 15:26:28 -0500";
layers = (
{
layerId = "473527B4-5F59-4C8B-BB4C-D011658D887A";
name = "Regular";
paths = (
{
closed = 1;
nodes = (
"55 552 OFFCURVE",
"55 679 OFFCURVE",
"55 806 CURVE SMOOTH",
"55 812 OFFCURVE",
"55 818 OFFCURVE",
"55 825 CURVE SMOOTH",
"55 837 OFFCURVE",
"61 844 OFFCURVE",
"74 850 CURVE SMOOTH",
"80 850 OFFCURVE",
"86 850 OFFCURVE",
"93 850 CURVE SMOOTH",
"188 850 OFFCURVE",
"283 850 OFFCURVE",
"378 850 CURVE SMOOTH",
"441 850 OFFCURVE",
"492 825 OFFCURVE",
"537 787 CURVE SMOOTH",
"587 742 OFFCURVE",
"613 685 OFFCURVE",
"619 622 CURVE SMOOTH",
"625 571 OFFCURVE",
"619 520 OFFCURVE",
"600 469 CURVE SMOOTH",
"587 438 OFFCURVE",
"568 412 OFFCURVE",
"543 387 CURVE SMOOTH",
"499 343 OFFCURVE",
"448 317 OFFCURVE",
"391 317 CURVE SMOOTH",
"346 311 OFFCURVE",
"302 317 OFFCURVE",
"258 317 CURVE SMOOTH",
"251 317 OFFCURVE",
"245 311 OFFCURVE",
"239 311 CURVE SMOOTH",
"232 311 OFFCURVE",
"219 304 OFFCURVE",
"219 292 CURVE SMOOTH",
"219 285 OFFCURVE",
"219 279 OFFCURVE",
"219 273 CURVE SMOOTH",
"219 197 OFFCURVE",
"219 121 OFFCURVE",
"219 44 CURVE SMOOTH",
"219 6 OFFCURVE",
"213 0 OFFCURVE",
"175 0 CURVE SMOOTH",
"150 0 OFFCURVE",
"124 0 OFFCURVE",
"93 0 CURVE SMOOTH",
"93 0 OFFCURVE",
"86 0 OFFCURVE",
"86 0 CURVE SMOOTH",
"61 0 OFFCURVE",
"55 13 OFFCURVE",
"55 32 CURVE SMOOTH",
"55 38 OFFCURVE",
"55 38 OFFCURVE",
"55 44 CURVE",
"55 171 OFFCURVE",
"55 298 OFFCURVE",
"55 425 CURVE SMOOTH"
);
},
{
closed = 1;
nodes = (
"219 558 OFFCURVE",
"219 539 OFFCURVE",
"219 520 CURVE SMOOTH",
"219 514 OFFCURVE",
"219 507 OFFCURVE",
"219 501 CURVE SMOOTH",
"219 488 OFFCURVE",
"232 482 OFFCURVE",
"239 482 CURVE SMOOTH",
"245 482 OFFCURVE",
"251 482 OFFCURVE",
"251 482 CURVE SMOOTH",
"289 482 OFFCURVE",
"327 482 OFFCURVE",
"359 482 CURVE SMOOTH",
"378 482 OFFCURVE",
"397 482 OFFCURVE",
"416 495 CURVE SMOOTH",
"441 514 OFFCURVE",
"448 539 OFFCURVE",
"454 571 CURVE SMOOTH",
"461 622 OFFCURVE",
"429 685 OFFCURVE",
"359 685 CURVE SMOOTH",
"327 685 OFFCURVE",
"289 685 OFFCURVE",
"258 685 CURVE SMOOTH",
"251 685 OFFCURVE",
"245 685 OFFCURVE",
"239 685 CURVE SMOOTH",
"232 679 OFFCURVE",
"219 672 OFFCURVE",
"219 660 CURVE SMOOTH",
"219 660 OFFCURVE",
"219 653 OFFCURVE",
"219 647 CURVE SMOOTH",
"219 622 OFFCURVE",
"219 603 OFFCURVE",
"219 584 CURVE SMOOTH"
);
}
);
width = 676;
}
);
leftKerningGroup = "30";
rightKerningGroup = "30";
unicode = 0050;
},
{
glyphname = "Q";
lastChange = "2013-07-19 15:26:32 -0500";
layers = (
{
layerId = "473527B4-5F59-4C8B-BB4C-D011658D887A";
name = "Regular";
paths = (
{
closed = 1;
nodes = (
"600 378 OFFCURVE",
"600 333 OFFCURVE",
"600 287 CURVE SMOOTH",
"600 262 OFFCURVE",
"598 237 OFFCURVE",
"592 212 CURVE SMOOTH",
"591 207 OFFCURVE",
"590 202 OFFCURVE",
"589 196 CURVE SMOOTH",
"588 183 OFFCURVE",
"592 174 OFFCURVE",
"606 172 CURVE SMOOTH",
"632 167 OFFCURVE",
"638 154 OFFCURVE",
"638 128 CURVE SMOOTH",
"637 101 OFFCURVE",
"637 75 OFFCURVE",
"637 48 CURVE SMOOTH",
"637 47 OFFCURVE",
"637 45 OFFCURVE",
"637 43 CURVE SMOOTH",
"637 17 OFFCURVE",
"627 6 OFFCURVE",
"600 7 CURVE SMOOTH",
"574 8 OFFCURVE",
"547 11 OFFCURVE",
"521 15 CURVE SMOOTH",
"504 18 OFFCURVE",
"487 22 OFFCURVE",
"470 27 CURVE SMOOTH",
"456 31 OFFCURVE",
"442 30 OFFCURVE",
"428 25 CURVE SMOOTH",
"407 19 OFFCURVE",
"386 12 OFFCURVE",
"365 9 CURVE SMOOTH",
"298 0 OFFCURVE",
"235 14 OFFCURVE",
"178 51 CURVE SMOOTH",
"137 78 OFFCURVE",
"106 113 OFFCURVE",
"84 156 CURVE SMOOTH",
"68 186 OFFCURVE",
"59 218 OFFCURVE",
"56 252 CURVE SMOOTH",
"55 268 OFFCURVE",
"55 283 OFFCURVE",
"55 299 CURVE SMOOTH",
"55 389 OFFCURVE",
"55 479 OFFCURVE",
"55 569 CURVE SMOOTH",
"55 630 OFFCURVE",
"73 686 OFFCURVE",
"111 734 CURVE SMOOTH",
"156 793 OFFCURVE",
"217 829 OFFCURVE",
"291 838 CURVE SMOOTH",
"387 850 OFFCURVE",
"469 820 OFFCURVE",
"533 748 CURVE SMOOTH",
"572 704 OFFCURVE",
"595 652 OFFCURVE",
"598 593 CURVE SMOOTH",
"601 558 OFFCURVE",
"600 523 OFFCURVE",
"600 488 CURVE SMOOTH",
"600 466 OFFCURVE",
"600 445 OFFCURVE",
"600 423 CURVE",
"600 423 OFFCURVE",
"600 423 OFFCURVE",
"600 423 CURVE"
);
},
{
closed = 1;
nodes = (
"218 379 OFFCURVE",
"218 332 OFFCURVE",
"218 286 CURVE SMOOTH",
"218 267 OFFCURVE",
"222 249 OFFCURVE",
"230 232 CURVE SMOOTH",
"258 177 OFFCURVE",
"324 154 OFFCURVE",
"379 184 CURVE SMOOTH",
"417 205 OFFCURVE",
"436 240 OFFCURVE",
"437 284 CURVE SMOOTH",
"437 377 OFFCURVE",
"437 471 OFFCURVE",
"437 565 CURVE SMOOTH",
"436 632 OFFCURVE",
"381 681 OFFCURVE",
"319 676 CURVE SMOOTH",
"290 674 OFFCURVE",
"266 661 OFFCURVE",
"246 640 CURVE SMOOTH",
"226 617 OFFCURVE",
"218 590 OFFCURVE",
"218 560 CURVE SMOOTH",
"218 515 OFFCURVE",
"218 470 OFFCURVE",
"218 425 CURVE SMOOTH"
);
}
);
width = 693;
}
);
leftKerningGroup = "30";
rightKerningGroup = "30";
unicode = 0051;
},
{
glyphname = "R";
lastChange = "2013-07-19 15:26:36 -0500";
layers = (
{
layerId = "473527B4-5F59-4C8B-BB4C-D011658D887A";
name = "Regular";
paths = (
{
closed = 1;
nodes = (
"55 556 OFFCURVE",
"55 681 OFFCURVE",
"55 813 CURVE SMOOTH",
"55 819 OFFCURVE",
"55 825 OFFCURVE",
"55 831 CURVE SMOOTH",
"61 844 OFFCURVE",
"68 850 OFFCURVE",
"80 850 CURVE SMOOTH",
"86 850 OFFCURVE",
"86 850 OFFCURVE",
"93 850 CURVE SMOOTH",
"186 850 OFFCURVE",
"286 850 OFFCURVE",
"380 850 CURVE SMOOTH",
"436 850 OFFCURVE",
"486 831 OFFCURVE",
"536 794 CURVE SMOOTH",
"580 750 OFFCURVE",
"611 700 OFFCURVE",
"618 638 CURVE SMOOTH",
"624 581 OFFCURVE",
"611 525 OFFCURVE",
"580 475 CURVE SMOOTH",
"574 469 OFFCURVE",
"574 463 OFFCURVE",
"574 456 CURVE SMOOTH",
"568 444 OFFCURVE",
"574 431 OFFCURVE",
"580 425 CURVE SMOOTH",
"605 388 OFFCURVE",
"618 344 OFFCURVE",
"624 300 CURVE SMOOTH",
"624 287 OFFCURVE",
"624 275 OFFCURVE",
"624 262 CURVE SMOOTH",
"624 187 OFFCURVE",
"624 119 OFFCURVE",
"624 44 CURVE SMOOTH",
"624 12 OFFCURVE",
"618 6 OFFCURVE",
"586 6 CURVE SMOOTH",
"555 6 OFFCURVE",
"530 6 OFFCURVE",
"505 6 CURVE SMOOTH",
"499 6 OFFCURVE",
"499 6 OFFCURVE",
"493 6 CURVE SMOOTH",
"474 6 OFFCURVE",
"461 12 OFFCURVE",
"461 37 CURVE SMOOTH",
"461 44 OFFCURVE",
"461 44 OFFCURVE",
"461 50 CURVE",
"461 119 OFFCURVE",
"461 181 OFFCURVE",
"461 250 CURVE SMOOTH",
"461 269 OFFCURVE",
"461 287 OFFCURVE",
"455 306 CURVE SMOOTH",
"443 338 OFFCURVE",
"418 356 OFFCURVE",
"386 356 CURVE SMOOTH",
"343 356 OFFCURVE",
"299 356 OFFCURVE",
"255 356 CURVE SMOOTH",
"230 356 OFFCURVE",
"218 344 OFFCURVE",
"218 319 CURVE SMOOTH",
"218 250 OFFCURVE",
"218 175 OFFCURVE",
"218 106 CURVE SMOOTH",
"218 81 OFFCURVE",
"218 62 OFFCURVE",
"218 37 CURVE SMOOTH",
"218 31 OFFCURVE",
"218 31 OFFCURVE",
"218 25 CURVE SMOOTH",
"218 12 OFFCURVE",
"211 6 OFFCURVE",
"199 6 CURVE SMOOTH",
"193 0 OFFCURVE",
"186 0 OFFCURVE",
"186 0 CURVE SMOOTH",
"155 0 OFFCURVE",
"124 0 OFFCURVE",
"93 0 CURVE SMOOTH",
"93 0 OFFCURVE",
"86 0 OFFCURVE",
"86 0 CURVE SMOOTH",
"68 6 OFFCURVE",
"55 12 OFFCURVE",
"55 31 CURVE SMOOTH",
"55 37 OFFCURVE",
"55 44 OFFCURVE",
"55 44 CURVE",
"55 175 OFFCURVE",
"55 300 OFFCURVE",
"55 425 CURVE SMOOTH"
);
},
{
closed = 1;
nodes = (
"293 688 OFFCURVE",
"274 688 OFFCURVE",
"255 688 CURVE SMOOTH",
"255 688 OFFCURVE",
"255 688 OFFCURVE",
"255 688 CURVE SMOOTH",
"230 688 OFFCURVE",
"218 681 OFFCURVE",
"218 650 CURVE SMOOTH",
"218 650 OFFCURVE",
"218 650 OFFCURVE",
"218 650 CURVE SMOOTH",
"218 619 OFFCURVE",
"218 594 OFFCURVE",
"218 563 CURVE SMOOTH",
"218 556 OFFCURVE",
"218 550 OFFCURVE",
"224 550 CURVE SMOOTH",
"224 538 OFFCURVE",
"230 531 OFFCURVE",
"243 525 CURVE SMOOTH",
"249 525 OFFCURVE",
"249 525 OFFCURVE",
"255 525 CURVE SMOOTH",
"293 525 OFFCURVE",
"324 525 OFFCURVE",
"361 525 CURVE SMOOTH",
"368 525 OFFCURVE",
"380 525 OFFCURVE",
"393 531 CURVE SMOOTH",
"430 538 OFFCURVE",
"455 575 OFFCURVE",
"455 613 CURVE SMOOTH",
"449 650 OFFCURVE",
"418 688 OFFCURVE",
"380 688 CURVE SMOOTH",
"355 688 OFFCURVE",
"311 688 OFFCURVE",
"311 688 CURVE"
);
}
);
width = 679;
}
);
leftKerningGroup = "30";
rightKerningGroup = "30";
unicode = 0052;
},
{
glyphname = "S";
lastChange = "2013-07-19 15:26:40 -0500";
layers = (
{
layerId = "473527B4-5F59-4C8B-BB4C-D011658D887A";
name = "Regular";
paths = (
{
closed = 1;
nodes = (
"329 1 OFFCURVE",
"296 0 OFFCURVE",
"264 7 CURVE SMOOTH",
"207 19 OFFCURVE",
"157 45 OFFCURVE",
"117 88 CURVE SMOOTH",
"83 125 OFFCURVE",
"64 170 OFFCURVE",
"57 219 CURVE SMOOTH",
"56 227 OFFCURVE",
"55 234 OFFCURVE",
"55 242 CURVE SMOOTH",
"56 256 OFFCURVE",
"64 266 OFFCURVE",
"77 266 CURVE SMOOTH",
"118 267 OFFCURVE",
"159 267 OFFCURVE",
"200 266 CURVE SMOOTH",
"213 266 OFFCURVE",
"220 255 OFFCURVE",
"224 243 CURVE SMOOTH",
"226 235 OFFCURVE",
"229 226 OFFCURVE",
"233 218 CURVE SMOOTH",
"248 190 OFFCURVE",
"274 178 OFFCURVE",
"303 173 CURVE SMOOTH",
"339 167 OFFCURVE",
"376 167 OFFCURVE",
"413 171 CURVE SMOOTH",
"481 180 OFFCURVE",
"518 255 OFFCURVE",
"484 315 CURVE SMOOTH",
"465 348 OFFCURVE",
"434 363 OFFCURVE",
"397 364 CURVE SMOOTH",
"374 365 OFFCURVE",
"350 364 OFFCURVE",
"327 364 CURVE SMOOTH",
"288 365 OFFCURVE",
"249 372 OFFCURVE",
"214 390 CURVE SMOOTH",
"136 430 OFFCURVE",
"91 494 OFFCURVE",
"81 581 CURVE SMOOTH",
"72 651 OFFCURVE",
"93 713 OFFCURVE",
"140 767 CURVE SMOOTH",
"179 811 OFFCURVE",
"227 837 OFFCURVE",
"285 846 CURVE SMOOTH",
"294 847 OFFCURVE",
"303 848 OFFCURVE",
"312 848 CURVE SMOOTH",
"346 848 OFFCURVE",
"381 850 OFFCURVE",
"415 846 CURVE SMOOTH",
"497 837 OFFCURVE",
"562 800 OFFCURVE",
"604 727 CURVE SMOOTH",
"619 700 OFFCURVE",
"626 671 OFFCURVE",
"630 641 CURVE SMOOTH",
"632 618 OFFCURVE",
"621 606 OFFCURVE",
"597 606 CURVE SMOOTH",
"564 605 OFFCURVE",
"531 605 OFFCURVE",
"499 606 CURVE SMOOTH",
"495 606 OFFCURVE",
"491 606 OFFCURVE",
"488 607 CURVE SMOOTH",
"476 608 OFFCURVE",
"468 614 OFFCURVE",
"463 625 CURVE SMOOTH",
"462 626 OFFCURVE",
"461 628 OFFCURVE",
"461 629 CURVE SMOOTH",
"449 662 OFFCURVE",
"424 676 OFFCURVE",
"391 678 CURVE SMOOTH",
"365 680 OFFCURVE",
"339 680 OFFCURVE",
"313 678 CURVE SMOOTH",
"260 672 OFFCURVE",
"232 613 OFFCURVE",
"260 569 CURVE SMOOTH",
"276 545 OFFCURVE",
"300 535 OFFCURVE",
"328 534 CURVE SMOOTH",
"352 534 OFFCURVE",
"377 535 OFFCURVE",
"401 534 CURVE SMOOTH",
"450 533 OFFCURVE",
"496 521 OFFCURVE",
"538 495 CURVE SMOOTH",
"610 451 OFFCURVE",
"653 386 OFFCURVE",
"664 302 CURVE SMOOTH",
"676 208 OFFCURVE",
"645 128 OFFCURVE",
"574 66 CURVE SMOOTH",
"533 28 OFFCURVE",
"483 7 OFFCURVE",
"426 2 CURVE SMOOTH",
"405 1 OFFCURVE",
"384 2 OFFCURVE",
"362 2 CURVE"
);
}
);
width = 692;
}
);
leftKerningGroup = "30";
rightKerningGroup = "30";
unicode = 0053;
},
{
glyphname = "T";
lastChange = "2013-07-19 15:26:42 -0500";
layers = (
{
layerId = "473527B4-5F59-4C8B-BB4C-D011658D887A";
name = "Regular";
paths = (
{
closed = 1;
nodes = (
"255 444 OFFCURVE",
"255 544 OFFCURVE",
"255 644 CURVE SMOOTH",
"255 651 OFFCURVE",
"254 657 OFFCURVE",
"253 664 CURVE SMOOTH",
"251 674 OFFCURVE",
"244 681 OFFCURVE",
"233 683 CURVE SMOOTH",
"227 684 OFFCURVE",
"221 685 OFFCURVE",
"215 685 CURVE SMOOTH",
"175 685 OFFCURVE",
"135 685 OFFCURVE",
"96 685 CURVE SMOOTH",
"64 685 OFFCURVE",
"55 694 OFFCURVE",
"55 726 CURVE SMOOTH",
"55 754 OFFCURVE",
"55 782 OFFCURVE",
"55 810 CURVE SMOOTH",
"55 813 OFFCURVE",
"55 816 OFFCURVE",
"55 819 CURVE SMOOTH",
"57 840 OFFCURVE",
"66 848 OFFCURVE",
"86 850 CURVE SMOOTH",
"90 850 OFFCURVE",
"94 850 OFFCURVE",
"98 850 CURVE SMOOTH",
"258 850 OFFCURVE",
"418 850 OFFCURVE",
"579 850 CURVE SMOOTH",
"585 850 OFFCURVE",
"592 850 OFFCURVE",
"598 849 CURVE SMOOTH",
"610 847 OFFCURVE",
"618 839 OFFCURVE",
"620 827 CURVE SMOOTH",
"621 823 OFFCURVE",
"621 818 OFFCURVE",
"621 813 CURVE SMOOTH",
"621 783 OFFCURVE",
"621 753 OFFCURVE",
"621 722 CURVE SMOOTH",
"621 717 OFFCURVE",
"621 712 OFFCURVE",
"619 707 CURVE SMOOTH",
"617 696 OFFCURVE",
"611 689 OFFCURVE",
"600 687 CURVE SMOOTH",
"594 686 OFFCURVE",
"588 685 OFFCURVE",
"582 685 CURVE SMOOTH",
"542 685 OFFCURVE",
"503 685 OFFCURVE",
"464 685 CURVE SMOOTH",
"461 685 OFFCURVE",
"458 685 OFFCURVE",
"454 685 CURVE SMOOTH",
"431 684 OFFCURVE",
"421 675 OFFCURVE",
"420 651 CURVE SMOOTH",
"420 645 OFFCURVE",
"420 639 OFFCURVE",
"420 632 CURVE SMOOTH",
"420 436 OFFCURVE",
"420 240 OFFCURVE",
"420 44 CURVE SMOOTH",
"420 36 OFFCURVE",
"419 29 OFFCURVE",
"418 22 CURVE SMOOTH",
"416 11 OFFCURVE",
"409 4 OFFCURVE",
"398 2 CURVE SMOOTH",
"393 1 OFFCURVE",
"387 1 OFFCURVE",
"382 0 CURVE SMOOTH",
"352 0 OFFCURVE",
"323 0 OFFCURVE",
"293 0 CURVE SMOOTH",
"289 0 OFFCURVE",
"285 1 OFFCURVE",
"280 2 CURVE SMOOTH",
"266 4 OFFCURVE",
"259 11 OFFCURVE",
"256 25 CURVE SMOOTH",
"255 31 OFFCURVE",
"255 37 OFFCURVE",
"255 43 CURVE SMOOTH",
"255 143 OFFCURVE",
"255 243 OFFCURVE",
"255 344 CURVE",
"255 344 OFFCURVE",
"255 344 OFFCURVE",
"255 344 CURVE"
);
}
);
width = 676;
}
);
leftKerningGroup = "30";
rightKerningGroup = "30";
unicode = 0054;
},
{
glyphname = "U";
lastChange = "2013-07-19 15:26:45 -0500";
layers = (
{
layerId = "473527B4-5F59-4C8B-BB4C-D011658D887A";
name = "Regular";
paths = (
{
closed = 1;
nodes = (
"55 638 OFFCURVE",
"55 719 OFFCURVE",
"55 806 CURVE SMOOTH",
"55 838 OFFCURVE",
"67 850 OFFCURVE",
"99 850 CURVE SMOOTH",
"124 850 OFFCURVE",
"155 850 OFFCURVE",
"180 850 CURVE SMOOTH",
"180 850 OFFCURVE",
"186 850 OFFCURVE",
"193 850 CURVE SMOOTH",
"211 844 OFFCURVE",
"218 838 OFFCURVE",
"218 819 CURVE SMOOTH",
"218 813 OFFCURVE",
"218 806 OFFCURVE",
"218 806 CURVE SMOOTH",
"218 638 OFFCURVE",
"218 475 OFFCURVE",
"218 312 CURVE SMOOTH",
"218 275 OFFCURVE",
"230 250 OFFCURVE",
"249 219 CURVE SMOOTH",
"274 194 OFFCURVE",
"305 175 OFFCURVE",
"343 169 CURVE SMOOTH",
"418 162 OFFCURVE",
"480 219 OFFCURVE",
"486 294 CURVE SMOOTH",
"486 300 OFFCURVE",
"486 306 OFFCURVE",
"486 312 CURVE SMOOTH",
"486 475 OFFCURVE",
"486 644 OFFCURVE",
"486 806 CURVE SMOOTH",
"486 813 OFFCURVE",
"493 819 OFFCURVE",
"493 825 CURVE SMOOTH",
"493 838 OFFCURVE",
"499 844 OFFCURVE",
"511 844 CURVE SMOOTH",
"518 850 OFFCURVE",
"524 850 OFFCURVE",
"524 850 CURVE SMOOTH",
"555 850 OFFCURVE",
"586 850 OFFCURVE",
"618 850 CURVE SMOOTH",
"624 850 OFFCURVE",
"624 850 OFFCURVE",
"630 844 CURVE SMOOTH",
"643 844 OFFCURVE",
"649 838 OFFCURVE",
"655 825 CURVE SMOOTH",
"655 819 OFFCURVE",
"655 813 OFFCURVE",
"655 806 CURVE SMOOTH",
"655 644 OFFCURVE",
"655 475 OFFCURVE",
"655 306 CURVE SMOOTH",
"655 262 OFFCURVE",
"643 219 OFFCURVE",
"624 175 CURVE SMOOTH",
"593 119 OFFCURVE",
"555 75 OFFCURVE",
"499 44 CURVE SMOOTH",
"449 12 OFFCURVE",
"393 0 OFFCURVE",
"330 6 CURVE SMOOTH",
"268 12 OFFCURVE",
"205 37 OFFCURVE",
"155 81 CURVE SMOOTH",
"111 125 OFFCURVE",
"80 175 OFFCURVE",
"61 237 CURVE SMOOTH",
"61 256 OFFCURVE",
"55 281 OFFCURVE",
"55 300 CURVE SMOOTH",
"55 381 OFFCURVE",
"55 469 OFFCURVE",
"55 550 CURVE SMOOTH"
);
}
);
width = 710;
}
);
leftKerningGroup = "30";
rightKerningGroup = "30";
unicode = 0055;
},
{
glyphname = "V";
lastChange = "2013-07-19 15:26:49 -0500";
layers = (
{
layerId = "473527B4-5F59-4C8B-BB4C-D011658D887A";
name = "Regular";
paths = (
{
closed = 1;
nodes = (
"376 0 OFFCURVE",
"349 0 OFFCURVE",
"322 0 CURVE SMOOTH",
"297 0 OFFCURVE",
"286 7 OFFCURVE",
"280 31 CURVE SMOOTH",
"263 88 OFFCURVE",
"247 145 OFFCURVE",
"230 202 CURVE SMOOTH",
"190 344 OFFCURVE",
"150 485 OFFCURVE",
"109 627 CURVE SMOOTH",
"92 687 OFFCURVE",
"75 747 OFFCURVE",
"58 807 CURVE SMOOTH",
"57 813 OFFCURVE",
"55 820 OFFCURVE",
"55 826 CURVE SMOOTH",
"54 838 OFFCURVE",
"61 845 OFFCURVE",
"72 848 CURVE SMOOTH",
"77 849 OFFCURVE",
"82 849 OFFCURVE",
"87 849 CURVE SMOOTH",
"121 849 OFFCURVE",
"154 849 OFFCURVE",
"187 849 CURVE SMOOTH",
"191 849 OFFCURVE",
"194 849 OFFCURVE",
"198 848 CURVE SMOOTH",
"214 846 OFFCURVE",
"223 837 OFFCURVE",
"228 822 CURVE SMOOTH",
"242 773 OFFCURVE",
"256 723 OFFCURVE",
"270 673 CURVE SMOOTH",
"297 579 OFFCURVE",
"323 485 OFFCURVE",
"350 392 CURVE SMOOTH",
"361 350 OFFCURVE",
"373 308 OFFCURVE",
"386 266 CURVE SMOOTH",
"388 259 OFFCURVE",
"392 253 OFFCURVE",
"396 247 CURVE SMOOTH",
"399 241 OFFCURVE",
"405 241 OFFCURVE",
"409 247 CURVE SMOOTH",
"413 252 OFFCURVE",
"417 258 OFFCURVE",
"418 264 CURVE SMOOTH",
"429 298 OFFCURVE",
"439 333 OFFCURVE",
"449 368 CURVE SMOOTH",
"475 458 OFFCURVE",
"500 549 OFFCURVE",
"525 639 CURVE SMOOTH",
"542 697 OFFCURVE",
"558 755 OFFCURVE",
"574 813 CURVE SMOOTH",
"575 815 OFFCURVE",
"576 818 OFFCURVE",
"577 820 CURVE SMOOTH",
"583 840 OFFCURVE",
"593 849 OFFCURVE",
"614 849 CURVE SMOOTH",
"650 850 OFFCURVE",
"687 849 OFFCURVE",
"723 849 CURVE SMOOTH",
"727 849 OFFCURVE",
"730 848 OFFCURVE",
"734 847 CURVE SMOOTH",
"745 845 OFFCURVE",
"751 838 OFFCURVE",
"750 827 CURVE SMOOTH",
"749 817 OFFCURVE",
"747 808 OFFCURVE",
"744 798 CURVE SMOOTH",
"698 636 OFFCURVE",
"652 474 OFFCURVE",
"606 312 CURVE SMOOTH",
"580 220 OFFCURVE",
"553 127 OFFCURVE",
"527 35 CURVE SMOOTH",
"525 30 OFFCURVE",
"524 25 OFFCURVE",
"522 21 CURVE SMOOTH",
"515 5 OFFCURVE",
"501 0 OFFCURVE",
"486 0 CURVE SMOOTH",
"458 0 OFFCURVE",
"430 0 OFFCURVE",
"402 0 CURVE SMOOTH",
"402 0 OFFCURVE",
"402 0 OFFCURVE",
"402 0 CURVE SMOOTH"
);
}
);
width = 805;
}
);
leftKerningGroup = "30";
rightKerningGroup = "30";
unicode = 0056;
},
{
glyphname = "W";
lastChange = "2013-07-19 15:26:52 -0500";
layers = (
{
layerId = "473527B4-5F59-4C8B-BB4C-D011658D887A";
name = "Regular";
paths = (
{
closed = 1;
nodes = (
"825 428 OFFCURVE",
"824 336 OFFCURVE",
"825 244 CURVE SMOOTH",
"825 188 OFFCURVE",
"809 137 OFFCURVE",
"773 94 CURVE SMOOTH",
"733 44 OFFCURVE",
"680 15 OFFCURVE",
"616 8 CURVE SMOOTH",
"574 4 OFFCURVE",
"533 10 OFFCURVE",
"493 28 CURVE SMOOTH",
"482 33 OFFCURVE",
"472 39 OFFCURVE",
"462 45 CURVE SMOOTH",
"447 55 OFFCURVE",
"432 54 OFFCURVE",
"418 45 CURVE SMOOTH",
"389 27 OFFCURVE",
"358 14 OFFCURVE",
"324 9 CURVE SMOOTH",
"254 0 OFFCURVE",
"191 17 OFFCURVE",
"137 63 CURVE SMOOTH",
"91 103 OFFCURVE",
"65 153 OFFCURVE",
"57 213 CURVE SMOOTH",
"56 225 OFFCURVE",
"55 237 OFFCURVE",
"55 248 CURVE",
"55 435 OFFCURVE",
"55 622 OFFCURVE",
"55 808 CURVE SMOOTH",
"55 842 OFFCURVE",
"64 850 OFFCURVE",
"98 850 CURVE SMOOTH",
"124 850 OFFCURVE",
"151 850 OFFCURVE",
"178 850 CURVE SMOOTH",
"181 850 OFFCURVE",
"184 850 OFFCURVE",
"187 850 CURVE SMOOTH",
"209 849 OFFCURVE",
"219 840 OFFCURVE",
"220 817 CURVE SMOOTH",
"220 814 OFFCURVE",
"220 810 OFFCURVE",
"220 806 CURVE SMOOTH",
"220 624 OFFCURVE",
"220 442 OFFCURVE",
"220 261 CURVE SMOOTH",
"220 243 OFFCURVE",
"222 225 OFFCURVE",
"230 209 CURVE SMOOTH",
"245 183 OFFCURVE",
"272 169 OFFCURVE",
"300 174 CURVE SMOOTH",
"330 180 OFFCURVE",
"352 203 OFFCURVE",
"356 233 CURVE SMOOTH",
"357 241 OFFCURVE",
"358 250 OFFCURVE",
"358 258 CURVE SMOOTH",
"358 441 OFFCURVE",
"358 624 OFFCURVE",
"358 807 CURVE SMOOTH",
"358 814 OFFCURVE",
"358 822 OFFCURVE",
"360 829 CURVE SMOOTH",
"362 839 OFFCURVE",
"368 846 OFFCURVE",
"379 848 CURVE SMOOTH",
"384 850 OFFCURVE",
"389 850 OFFCURVE",
"395 850 CURVE SMOOTH",
"425 850 OFFCURVE",
"455 850 OFFCURVE",
"485 850 CURVE SMOOTH",
"489 850 OFFCURVE",
"492 850 OFFCURVE",
"495 850 CURVE SMOOTH",
"512 847 OFFCURVE",
"519 840 OFFCURVE",
"521 823 CURVE SMOOTH",
"522 818 OFFCURVE",
"522 812 OFFCURVE",
"522 807 CURVE SMOOTH",
"522 626 OFFCURVE",
"522 445 OFFCURVE",
"523 263 CURVE SMOOTH",
"523 248 OFFCURVE",
"524 233 OFFCURVE",
"529 219 CURVE SMOOTH",
"546 171 OFFCURVE",
"602 159 OFFCURVE",
"636 191 CURVE SMOOTH",
"653 207 OFFCURVE",
"659 227 OFFCURVE",
"660 249 CURVE SMOOTH",
"660 268 OFFCURVE",
"660 287 OFFCURVE",
"660 306 CURVE SMOOTH",
"660 473 OFFCURVE",
"660 640 OFFCURVE",
"660 807 CURVE SMOOTH",
"660 814 OFFCURVE",
"661 822 OFFCURVE",
"662 829 CURVE SMOOTH",
"664 840 OFFCURVE",
"671 846 OFFCURVE",
"682 848 CURVE SMOOTH",
"687 850 OFFCURVE",
"692 850 OFFCURVE",
"698 850 CURVE SMOOTH",
"727 850 OFFCURVE",
"757 850 OFFCURVE",
"786 850 CURVE SMOOTH",
"790 850 OFFCURVE",
"794 850 OFFCURVE",
"798 849 CURVE SMOOTH",
"814 847 OFFCURVE",
"821 840 OFFCURVE",
"824 824 CURVE SMOOTH",
"824 818 OFFCURVE",
"825 813 OFFCURVE",
"825 807 CURVE SMOOTH",
"825 712 OFFCURVE",
"825 616 OFFCURVE",
"825 521 CURVE",
"825 521 OFFCURVE",
"825 521 OFFCURVE",
"825 521 CURVE"
);
}
);
width = 880;
}
);
leftKerningGroup = "30";
rightKerningGroup = "30";
unicode = 0057;
},
{
glyphname = "X";
lastChange = "2013-07-19 15:26:55 -0500";
layers = (
{
layerId = "473527B4-5F59-4C8B-BB4C-D011658D887A";
name = "Regular";
paths = (
{
closed = 1;
nodes = (
"55 168 OFFCURVE",
"55 199 OFFCURVE",
"55 229 CURVE SMOOTH",
"56 296 OFFCURVE",
"77 356 OFFCURVE",
"118 408 CURVE SMOOTH",
"123 415 OFFCURVE",
"128 421 OFFCURVE",
"132 428 CURVE SMOOTH",
"138 439 OFFCURVE",
"137 449 OFFCURVE",
"130 459 CURVE SMOOTH",
"116 480 OFFCURVE",
"101 500 OFFCURVE",
"88 522 CURVE SMOOTH",
"70 555 OFFCURVE",
"58 591 OFFCURVE",
"57 629 CURVE SMOOTH",
"55 691 OFFCURVE",
"55 753 OFFCURVE",
"55 815 CURVE SMOOTH",
"55 839 OFFCURVE",
"66 849 OFFCURVE",
"90 849 CURVE SMOOTH",
"121 849 OFFCURVE",
"153 849 OFFCURVE",
"184 849 CURVE SMOOTH",
"209 849 OFFCURVE",
"219 838 OFFCURVE",
"219 814 CURVE SMOOTH",
"220 765 OFFCURVE",
"219 717 OFFCURVE",
"220 668 CURVE SMOOTH",
"220 641 OFFCURVE",
"225 616 OFFCURVE",
"239 592 CURVE SMOOTH",
"272 537 OFFCURVE",
"340 511 OFFCURVE",
"400 533 CURVE SMOOTH",
"448 552 OFFCURVE",
"478 587 OFFCURVE",
"488 637 CURVE SMOOTH",
"490 647 OFFCURVE",
"490 657 OFFCURVE",
"490 666 CURVE SMOOTH",
"490 713 OFFCURVE",
"490 761 OFFCURVE",
"490 808 CURVE SMOOTH",
"490 840 OFFCURVE",
"499 849 OFFCURVE",
"531 849 CURVE SMOOTH",
"560 849 OFFCURVE",
"588 849 OFFCURVE",
"616 849 CURVE SMOOTH",
"618 849 OFFCURVE",
"620 849 OFFCURVE",
"621 849 CURVE SMOOTH",
"646 849 OFFCURVE",
"656 838 OFFCURVE",
"656 814 CURVE SMOOTH",
"657 773 OFFCURVE",
"657 732 OFFCURVE",
"656 691 CURVE SMOOTH",
"656 665 OFFCURVE",
"655 640 OFFCURVE",
"652 615 CURVE SMOOTH",
"645 561 OFFCURVE",
"623 514 OFFCURVE",
"589 471 CURVE SMOOTH",
"587 468 OFFCURVE",
"585 466 OFFCURVE",
"583 463 CURVE SMOOTH",
"572 448 OFFCURVE",
"572 434 OFFCURVE",
"584 419 CURVE SMOOTH",
"611 386 OFFCURVE",
"631 350 OFFCURVE",
"643 309 CURVE SMOOTH",
"652 281 OFFCURVE",
"656 253 OFFCURVE",
"656 224 CURVE SMOOTH",
"657 162 OFFCURVE",
"657 99 OFFCURVE",
"656 37 CURVE SMOOTH",
"656 32 OFFCURVE",
"656 27 OFFCURVE",
"655 22 CURVE SMOOTH",
"653 10 OFFCURVE",
"645 3 OFFCURVE",
"633 1 CURVE SMOOTH",
"628 0 OFFCURVE",
"623 0 OFFCURVE",
"618 0 CURVE SMOOTH",
"588 -1 OFFCURVE",
"558 0 OFFCURVE",
"528 0 CURVE SMOOTH",
"527 0 OFFCURVE",
"525 0 OFFCURVE",
"523 0 CURVE SMOOTH",
"501 1 OFFCURVE",
"492 10 OFFCURVE",
"491 32 CURVE SMOOTH",
"490 40 OFFCURVE",
"490 48 OFFCURVE",
"490 56 CURVE",
"490 110 OFFCURVE",
"490 165 OFFCURVE",
"490 220 CURVE SMOOTH",
"490 260 OFFCURVE",
"476 294 OFFCURVE",
"447 322 CURVE SMOOTH",
"409 359 OFFCURVE",
"347 369 OFFCURVE",
"300 346 CURVE SMOOTH",
"247 321 OFFCURVE",
"221 278 OFFCURVE",
"220 221 CURVE SMOOTH",
"219 161 OFFCURVE",
"220 101 OFFCURVE",
"219 41 CURVE SMOOTH",
"219 8 OFFCURVE",
"211 0 OFFCURVE",
"178 0 CURVE SMOOTH",
"150 -1 OFFCURVE",
"122 -1 OFFCURVE",
"95 0 CURVE SMOOTH",
"90 0 OFFCURVE",
"86 0 OFFCURVE",
"82 0 CURVE SMOOTH",
"65 3 OFFCURVE",
"58 10 OFFCURVE",
"56 27 CURVE SMOOTH",
"55 31 OFFCURVE",
"55 36 OFFCURVE",
"55 40 CURVE SMOOTH",
"55 73 OFFCURVE",
"55 105 OFFCURVE",
"55 138 CURVE SMOOTH"
);
}
);
width = 712;
}
);
leftKerningGroup = "30";
rightKerningGroup = "30";
unicode = 0058;
},
{
glyphname = "Y";
lastChange = "2013-07-19 15:26:58 -0500";
layers = (
{
layerId = "473527B4-5F59-4C8B-BB4C-D011658D887A";
name = "Regular";
paths = (
{
closed = 1;
nodes = (
"274 235 OFFCURVE",
"274 284 OFFCURVE",
"274 332 CURVE SMOOTH",
"274 360 OFFCURVE",
"267 369 OFFCURVE",
"242 380 CURVE SMOOTH",
"186 403 OFFCURVE",
"140 440 OFFCURVE",
"106 491 CURVE SMOOTH",
"78 533 OFFCURVE",
"60 580 OFFCURVE",
"56 632 CURVE SMOOTH",
"55 648 OFFCURVE",
"55 665 OFFCURVE",
"55 682 CURVE SMOOTH",
"55 723 OFFCURVE",
"55 764 OFFCURVE",
"55 806 CURVE SMOOTH",
"55 808 OFFCURVE",
"55 811 OFFCURVE",
"55 814 CURVE SMOOTH",
"56 839 OFFCURVE",
"66 850 OFFCURVE",
"91 850 CURVE SMOOTH",
"122 850 OFFCURVE",
"154 850 OFFCURVE",
"185 850 CURVE SMOOTH",
"190 850 OFFCURVE",
"195 849 OFFCURVE",
"200 848 CURVE SMOOTH",
"210 845 OFFCURVE",
"216 839 OFFCURVE",
"218 829 CURVE SMOOTH",
"220 823 OFFCURVE",
"221 816 OFFCURVE",
"221 809 CURVE SMOOTH",
"221 760 OFFCURVE",
"220 712 OFFCURVE",
"221 663 CURVE SMOOTH",
"221 632 OFFCURVE",
"230 603 OFFCURVE",
"249 578 CURVE SMOOTH",
"288 527 OFFCURVE",
"355 510 OFFCURVE",
"413 537 CURVE SMOOTH",
"459 558 OFFCURVE",
"486 595 OFFCURVE",
"491 646 CURVE SMOOTH",
"493 666 OFFCURVE",
"493 687 OFFCURVE",
"493 708 CURVE SMOOTH",
"493 742 OFFCURVE",
"493 776 OFFCURVE",
"493 810 CURVE SMOOTH",
"493 816 OFFCURVE",
"494 822 OFFCURVE",
"495 828 CURVE SMOOTH",
"497 839 OFFCURVE",
"504 846 OFFCURVE",
"515 848 CURVE SMOOTH",
"520 849 OFFCURVE",
"525 850 OFFCURVE",
"530 850 CURVE SMOOTH",
"561 850 OFFCURVE",
"592 850 OFFCURVE",
"622 850 CURVE SMOOTH",
"626 850 OFFCURVE",
"630 849 OFFCURVE",
"634 849 CURVE SMOOTH",
"650 846 OFFCURVE",
"657 839 OFFCURVE",
"659 823 CURVE SMOOTH",
"660 819 OFFCURVE",
"660 815 OFFCURVE",
"660 810 CURVE SMOOTH",
"660 762 OFFCURVE",
"660 714 OFFCURVE",
"660 665 CURVE SMOOTH",
"660 600 OFFCURVE",
"642 540 OFFCURVE",
"604 486 CURVE SMOOTH",
"571 438 OFFCURVE",
"526 403 OFFCURVE",
"473 380 CURVE SMOOTH",
"470 379 OFFCURVE",
"468 378 OFFCURVE",
"465 377 CURVE SMOOTH",
"447 370 OFFCURVE",
"440 356 OFFCURVE",
"440 338 CURVE SMOOTH",
"440 322 OFFCURVE",
"440 306 OFFCURVE",
"440 290 CURVE SMOOTH",
"440 208 OFFCURVE",
"440 125 OFFCURVE",
"440 43 CURVE SMOOTH",
"440 8 OFFCURVE",
"432 0 OFFCURVE",
"396 0 CURVE SMOOTH",
"370 0 OFFCURVE",
"344 0 OFFCURVE",
"318 0 CURVE SMOOTH",
"315 0 OFFCURVE",
"312 0 OFFCURVE",
"309 0 CURVE SMOOTH",
"285 1 OFFCURVE",
"275 11 OFFCURVE",
"274 35 CURVE SMOOTH",
"274 47 OFFCURVE",
"274 59 OFFCURVE",
"274 71 CURVE",
"274 109 OFFCURVE",
"274 148 OFFCURVE",
"274 186 CURVE",
"274 186 OFFCURVE",
"274 186 OFFCURVE",
"274 186 CURVE"
);
}
);
width = 715;
}
);
leftKerningGroup = "30";
rightKerningGroup = "30";
unicode = 0059;
},
{
glyphname = "Z";
lastChange = "2013-07-19 15:27:01 -0500";
layers = (
{
layerId = "473527B4-5F59-4C8B-BB4C-D011658D887A";
name = "Regular";
paths = (
{
closed = 1;
nodes = (
"420 850 OFFCURVE",
"501 850 OFFCURVE",
"581 850 CURVE SMOOTH",
"615 850 OFFCURVE",
"624 842 OFFCURVE",
"624 807 CURVE SMOOTH",
"624 776 OFFCURVE",
"624 744 OFFCURVE",
"624 713 CURVE SMOOTH",
"624 694 OFFCURVE",
"619 678 OFFCURVE",
"609 663 CURVE SMOOTH",
"570 609 OFFCURVE",
"532 554 OFFCURVE",
"493 500 CURVE SMOOTH",
"448 436 OFFCURVE",
"403 373 OFFCURVE",
"358 310 CURVE SMOOTH",
"334 276 OFFCURVE",
"310 242 OFFCURVE",
"286 209 CURVE SMOOTH",
"282 203 OFFCURVE",
"278 197 OFFCURVE",
"276 190 CURVE SMOOTH",
"271 178 OFFCURVE",
"276 169 OFFCURVE",
"289 167 CURVE SMOOTH",
"296 166 OFFCURVE",
"302 166 OFFCURVE",
"309 166 CURVE SMOOTH",
"400 166 OFFCURVE",
"491 166 OFFCURVE",
"581 166 CURVE SMOOTH",
"588 166 OFFCURVE",
"596 165 OFFCURVE",
"603 164 CURVE SMOOTH",
"613 161 OFFCURVE",
"619 155 OFFCURVE",
"622 144 CURVE SMOOTH",
"623 139 OFFCURVE",
"624 133 OFFCURVE",
"624 128 CURVE SMOOTH",
"624 98 OFFCURVE",
"624 68 OFFCURVE",
"624 38 CURVE SMOOTH",
"624 33 OFFCURVE",
"623 28 OFFCURVE",
"622 23 CURVE SMOOTH",
"620 11 OFFCURVE",
"612 4 OFFCURVE",
"600 2 CURVE SMOOTH",
"595 1 OFFCURVE",
"590 0 OFFCURVE",
"585 0 CURVE SMOOTH",
"421 0 OFFCURVE",
"258 0 OFFCURVE",
"94 0 CURVE SMOOTH",
"91 0 OFFCURVE",
"88 0 OFFCURVE",
"85 0 CURVE SMOOTH",
"66 3 OFFCURVE",
"56 10 OFFCURVE",
"56 30 CURVE SMOOTH",
"55 71 OFFCURVE",
"56 112 OFFCURVE",
"56 153 CURVE SMOOTH",
"57 173 OFFCURVE",
"69 188 OFFCURVE",
"80 203 CURVE SMOOTH",
"168 327 OFFCURVE",
"256 450 OFFCURVE",
"344 574 CURVE SMOOTH",
"363 600 OFFCURVE",
"382 626 OFFCURVE",
"400 653 CURVE SMOOTH",
"411 669 OFFCURVE",
"405 680 OFFCURVE",
"386 683 CURVE SMOOTH",
"382 684 OFFCURVE",
"377 684 OFFCURVE",
"373 684 CURVE SMOOTH",
"353 684 OFFCURVE",
"333 684 OFFCURVE",
"312 684 CURVE SMOOTH",
"241 684 OFFCURVE",
"169 684 OFFCURVE",
"97 684 CURVE SMOOTH",
"64 684 OFFCURVE",
"55 693 OFFCURVE",
"55 726 CURVE SMOOTH",
"55 754 OFFCURVE",
"55 782 OFFCURVE",
"55 810 CURVE SMOOTH",
"55 814 OFFCURVE",
"55 819 OFFCURVE",
"56 823 CURVE SMOOTH",
"59 840 OFFCURVE",
"65 847 OFFCURVE",
"82 849 CURVE SMOOTH",
"87 850 OFFCURVE",
"92 850 OFFCURVE",
"98 850 CURVE SMOOTH",
"178 850 OFFCURVE",
"259 850 OFFCURVE",
"340 850 CURVE SMOOTH"
);
}
);
width = 679;
}
);
leftKerningGroup = "30";
rightKerningGroup = "30";
unicode = 005A;
},
{
glyphname = "zero";
lastChange = "2013-07-19 15:27:05 -0500";
layers = (
{
layerId = "473527B4-5F59-4C8B-BB4C-D011658D887A";
name = "Regular";
paths = (
{
closed = 1;
nodes = (
"602 378 OFFCURVE",
"602 328 OFFCURVE",
"602 278 CURVE SMOOTH",
"602 208 OFFCURVE",
"583 152 OFFCURVE",
"533 95 CURVE SMOOTH",
"489 45 OFFCURVE",
"426 13 OFFCURVE",
"351 7 CURVE SMOOTH",
"274 0 OFFCURVE",
"206 20 OFFCURVE",
"149 70 CURVE SMOOTH",
"99 120 OFFCURVE",
"68 177 OFFCURVE",
"55 246 CURVE SMOOTH",
"55 252 OFFCURVE",
"55 265 OFFCURVE",
"55 278 CURVE SMOOTH",
"55 378 OFFCURVE",
"55 473 OFFCURVE",
"55 573 CURVE SMOOTH",
"55 642 OFFCURVE",
"80 705 OFFCURVE",
"124 756 CURVE SMOOTH",
"174 806 OFFCURVE",
"231 837 OFFCURVE",
"307 844 CURVE SMOOTH",
"388 850 OFFCURVE",
"457 825 OFFCURVE",
"514 774 CURVE SMOOTH",
"564 730 OFFCURVE",
"596 674 OFFCURVE",
"602 605 CURVE SMOOTH",
"602 592 OFFCURVE",
"602 586 OFFCURVE",
"602 573 CURVE SMOOTH",
"602 523 OFFCURVE",
"602 473 OFFCURVE",
"602 422 CURVE SMOOTH"
);
},
{
closed = 1;
nodes = (
"218 378 OFFCURVE",
"218 334 OFFCURVE",
"218 284 CURVE SMOOTH",
"218 252 OFFCURVE",
"231 221 OFFCURVE",
"256 196 CURVE SMOOTH",
"294 164 OFFCURVE",
"357 158 OFFCURVE",
"395 190 CURVE SMOOTH",
"426 215 OFFCURVE",
"439 246 OFFCURVE",
"439 290 CURVE SMOOTH",
"439 378 OFFCURVE",
"439 473 OFFCURVE",
"439 561 CURVE SMOOTH",
"439 573 OFFCURVE",
"439 586 OFFCURVE",
"439 592 CURVE SMOOTH",
"426 636 OFFCURVE",
"401 661 OFFCURVE",
"357 674 CURVE SMOOTH",
"319 686 OFFCURVE",
"281 674 OFFCURVE",
"250 649 CURVE SMOOTH",
"231 623 OFFCURVE",
"218 598 OFFCURVE",
"218 567 CURVE SMOOTH",
"218 517 OFFCURVE",
"218 473 OFFCURVE",
"218 429 CURVE SMOOTH"
);
}
);
width = 666;
}
);
leftKerningGroup = "30";
rightKerningGroup = "30";
unicode = 0030;
},
{
glyphname = "one";
lastChange = "2013-07-19 15:27:08 -0500";
layers = (
{
layerId = "473527B4-5F59-4C8B-BB4C-D011658D887A";
name = "Regular";
paths = (
{
closed = 1;
nodes = (
"384 275 OFFCURVE",
"384 159 OFFCURVE",
"384 42 CURVE SMOOTH",
"384 35 OFFCURVE",
"383 28 OFFCURVE",
"382 21 CURVE SMOOTH",
"380 11 OFFCURVE",
"373 4 OFFCURVE",
"362 2 CURVE SMOOTH",
"358 1 OFFCURVE",
"353 0 OFFCURVE",
"348 0 CURVE SMOOTH",
"317 0 OFFCURVE",
"287 0 OFFCURVE",
"257 0 CURVE SMOOTH",
"254 0 OFFCURVE",
"250 0 OFFCURVE",
"247 1 CURVE SMOOTH",
"231 3 OFFCURVE",
"224 10 OFFCURVE",
"222 26 CURVE SMOOTH",
"221 31 OFFCURVE",
"221 37 OFFCURVE",
"221 42 CURVE",
"221 202 OFFCURVE",
"221 361 OFFCURVE",
"221 521 CURVE SMOOTH",
"221 529 OFFCURVE",
"220 537 OFFCURVE",
"218 545 CURVE SMOOTH",
"215 556 OFFCURVE",
"208 559 OFFCURVE",
"198 555 CURVE SMOOTH",
"194 553 OFFCURVE",
"189 550 OFFCURVE",
"185 547 CURVE SMOOTH",
"180 543 OFFCURVE",
"176 539 OFFCURVE",
"171 536 CURVE SMOOTH",
"159 527 OFFCURVE",
"147 527 OFFCURVE",
"135 538 CURVE SMOOTH",
"129 544 OFFCURVE",
"123 551 OFFCURVE",
"117 558 CURVE SMOOTH",
"98 579 OFFCURVE",
"80 601 OFFCURVE",
"62 622 CURVE SMOOTH",
"52 635 OFFCURVE",
"53 648 OFFCURVE",
"65 659 CURVE SMOOTH",
"88 679 OFFCURVE",
"111 700 OFFCURVE",
"135 720 CURVE SMOOTH",
"165 747 OFFCURVE",
"196 773 OFFCURVE",
"227 800 CURVE SMOOTH",
"242 812 OFFCURVE",
"256 824 OFFCURVE",
"274 831 CURVE SMOOTH",
"322 850 OFFCURVE",
"376 817 OFFCURVE",
"382 766 CURVE SMOOTH",
"383 756 OFFCURVE",
"384 747 OFFCURVE",
"384 737 CURVE SMOOTH",
"384 622 OFFCURVE",
"384 507 OFFCURVE",
"384 392 CURVE SMOOTH"
);
}
);
width = 439;
}
);
leftKerningGroup = "30";
rightKerningGroup = "30";
unicode = 0031;
},
{
glyphname = "two";
lastChange = "2013-07-19 15:27:11 -0500";
layers = (
{
layerId = "473527B4-5F59-4C8B-BB4C-D011658D887A";
name = "Regular";
paths = (
{
closed = 1;
nodes = (
"245 0 OFFCURVE",
"176 0 OFFCURVE",
"99 0 CURVE SMOOTH",
"61 0 OFFCURVE",
"55 6 OFFCURVE",
"55 44 CURVE SMOOTH",
"55 89 OFFCURVE",
"55 140 OFFCURVE",
"55 190 CURVE SMOOTH",
"55 254 OFFCURVE",
"80 311 OFFCURVE",
"118 362 CURVE SMOOTH",
"169 425 OFFCURVE",
"239 457 OFFCURVE",
"315 469 CURVE SMOOTH",
"334 469 OFFCURVE",
"347 469 OFFCURVE",
"366 469 CURVE SMOOTH",
"410 482 OFFCURVE",
"448 520 OFFCURVE",
"455 571 CURVE SMOOTH",
"455 609 OFFCURVE",
"436 634 OFFCURVE",
"410 660 CURVE SMOOTH",
"353 704 OFFCURVE",
"264 679 OFFCURVE",
"239 609 CURVE SMOOTH",
"239 609 OFFCURVE",
"239 603 OFFCURVE",
"239 603 CURVE SMOOTH",
"226 577 OFFCURVE",
"220 571 OFFCURVE",
"188 571 CURVE SMOOTH",
"163 571 OFFCURVE",
"131 571 OFFCURVE",
"106 571 CURVE SMOOTH",
"74 571 OFFCURVE",
"61 584 OFFCURVE",
"68 615 CURVE SMOOTH",
"80 672 OFFCURVE",
"106 729 OFFCURVE",
"150 774 CURVE SMOOTH",
"201 818 OFFCURVE",
"258 844 OFFCURVE",
"328 850 CURVE SMOOTH",
"398 850 OFFCURVE",
"461 831 OFFCURVE",
"512 787 CURVE SMOOTH",
"575 736 OFFCURVE",
"613 672 OFFCURVE",
"620 590 CURVE SMOOTH",
"620 514 OFFCURVE",
"601 450 OFFCURVE",
"550 393 CURVE SMOOTH",
"505 343 OFFCURVE",
"448 317 OFFCURVE",
"379 304 CURVE SMOOTH",
"359 304 OFFCURVE",
"340 304 OFFCURVE",
"321 298 CURVE SMOOTH",
"277 285 OFFCURVE",
"245 260 OFFCURVE",
"233 216 CURVE SMOOTH",
"226 209 OFFCURVE",
"226 197 OFFCURVE",
"233 190 CURVE SMOOTH",
"233 178 OFFCURVE",
"239 171 OFFCURVE",
"245 165 CURVE SMOOTH",
"252 165 OFFCURVE",
"258 165 OFFCURVE",
"271 165 CURVE SMOOTH",
"359 165 OFFCURVE",
"455 165 OFFCURVE",
"550 165 CURVE SMOOTH",
"581 165 OFFCURVE",
"594 159 OFFCURVE",
"594 121 CURVE SMOOTH",
"594 95 OFFCURVE",
"594 70 OFFCURVE",
"594 38 CURVE SMOOTH",
"594 38 OFFCURVE",
"594 32 OFFCURVE",
"594 25 CURVE SMOOTH",
"588 13 OFFCURVE",
"581 6 OFFCURVE",
"562 0 CURVE SMOOTH",
"562 0 OFFCURVE",
"556 0 OFFCURVE",
"550 0 CURVE SMOOTH",
"474 0 OFFCURVE",
"398 0 OFFCURVE",
"321 0 CURVE SMOOTH"
);
}
);
width = 600;
}
);
leftKerningGroup = "30";
rightKerningGroup = "30";
unicode = 0032;
},
{
glyphname = "three";
lastChange = "2013-07-19 15:27:15 -0500";
layers = (
{
layerId = "473527B4-5F59-4C8B-BB4C-D011658D887A";
name = "Regular";
paths = (
{
closed = 1;
nodes = (
"155 281 OFFCURVE",
"174 281 OFFCURVE",
"193 281 CURVE SMOOTH",
"205 281 OFFCURVE",
"211 275 OFFCURVE",
"218 263 CURVE SMOOTH",
"224 250 OFFCURVE",
"224 238 OFFCURVE",
"236 225 CURVE SMOOTH",
"261 181 OFFCURVE",
"299 169 OFFCURVE",
"349 169 CURVE SMOOTH",
"380 175 OFFCURVE",
"405 194 OFFCURVE",
"424 219 CURVE SMOOTH",
"455 275 OFFCURVE",
"418 344 OFFCURVE",
"355 350 CURVE SMOOTH",
"343 356 OFFCURVE",
"330 350 OFFCURVE",
"318 356 CURVE SMOOTH",
"311 356 OFFCURVE",
"305 356 OFFCURVE",
"299 356 CURVE SMOOTH",
"286 356 OFFCURVE",
"280 363 OFFCURVE",
"280 375 CURVE SMOOTH",
"280 381 OFFCURVE",
"280 388 OFFCURVE",
"280 388 CURVE SMOOTH",
"280 419 OFFCURVE",
"280 456 OFFCURVE",
"280 488 CURVE SMOOTH",
"280 488 OFFCURVE",
"280 494 OFFCURVE",
"280 500 CURVE SMOOTH",
"280 513 OFFCURVE",
"286 519 OFFCURVE",
"299 519 CURVE SMOOTH",
"311 519 OFFCURVE",
"330 525 OFFCURVE",
"343 525 CURVE SMOOTH",
"393 538 OFFCURVE",
"424 594 OFFCURVE",
"399 644 CURVE SMOOTH",
"374 688 OFFCURVE",
"311 700 OFFCURVE",
"274 663 CURVE SMOOTH",
"261 656 OFFCURVE",
"255 638 OFFCURVE",
"249 625 CURVE SMOOTH",
"249 619 OFFCURVE",
"249 606 OFFCURVE",
"243 600 CURVE SMOOTH",
"243 594 OFFCURVE",
"236 588 OFFCURVE",
"224 581 CURVE SMOOTH",
"218 581 OFFCURVE",
"211 581 OFFCURVE",
"205 581 CURVE SMOOTH",
"180 581 OFFCURVE",
"149 581 OFFCURVE",
"118 581 CURVE SMOOTH",
"86 581 OFFCURVE",
"80 594 OFFCURVE",
"80 625 CURVE SMOOTH",
"86 663 OFFCURVE",
"99 700 OFFCURVE",
"118 738 CURVE SMOOTH",
"161 800 OFFCURVE",
"224 838 OFFCURVE",
"305 850 CURVE SMOOTH",
"349 850 OFFCURVE",
"386 844 OFFCURVE",
"430 825 CURVE SMOOTH",
"480 806 OFFCURVE",
"518 769 OFFCURVE",
"543 719 CURVE SMOOTH",
"561 688 OFFCURVE",
"574 644 OFFCURVE",
"574 606 CURVE SMOOTH",
"574 563 OFFCURVE",
"561 519 OFFCURVE",
"543 481 CURVE SMOOTH",
"536 481 OFFCURVE",
"536 481 OFFCURVE",
"536 481 CURVE SMOOTH",
"524 456 OFFCURVE",
"524 444 OFFCURVE",
"543 425 CURVE SMOOTH",
"574 381 OFFCURVE",
"593 344 OFFCURVE",
"599 294 CURVE SMOOTH",
"605 219 OFFCURVE",
"586 156 OFFCURVE",
"543 100 CURVE SMOOTH",
"499 44 OFFCURVE",
"436 13 OFFCURVE",
"368 6 CURVE SMOOTH",
"286 0 OFFCURVE",
"211 19 OFFCURVE",
"149 75 CURVE SMOOTH",
"99 119 OFFCURVE",
"68 175 OFFCURVE",
"55 244 CURVE SMOOTH",
"55 250 OFFCURVE",
"55 250 OFFCURVE",
"55 256 CURVE SMOOTH",
"55 269 OFFCURVE",
"61 275 OFFCURVE",
"74 281 CURVE SMOOTH",
"80 281 OFFCURVE",
"86 281 OFFCURVE",
"93 281 CURVE SMOOTH",
"105 281 OFFCURVE",
"124 281 OFFCURVE",
"136 281 CURVE",
"136 281 OFFCURVE",
"136 281 OFFCURVE",
"136 281 CURVE"
);
}
);
width = 597;
}
);
leftKerningGroup = "30";
rightKerningGroup = "30";
unicode = 0033;
},
{
glyphname = "four";
lastChange = "2013-07-19 15:27:19 -0500";
layers = (
{
layerId = "473527B4-5F59-4C8B-BB4C-D011658D887A";
name = "Regular";
paths = (
{
closed = 1;
nodes = (
"581 298 OFFCURVE",
"581 171 OFFCURVE",
"581 44 CURVE SMOOTH",
"581 38 OFFCURVE",
"581 25 OFFCURVE",
"575 19 CURVE SMOOTH",
"575 13 OFFCURVE",
"569 6 OFFCURVE",
"556 0 CURVE SMOOTH",
"556 0 OFFCURVE",
"550 0 OFFCURVE",
"543 0 CURVE SMOOTH",
"512 0 OFFCURVE",
"480 0 OFFCURVE",
"455 0 CURVE SMOOTH",
"448 0 OFFCURVE",
"442 0 OFFCURVE",
"436 0 CURVE SMOOTH",
"423 6 OFFCURVE",
"417 13 OFFCURVE",
"417 25 CURVE SMOOTH",
"417 32 OFFCURVE",
"417 38 OFFCURVE",
"417 44 CURVE SMOOTH",
"417 140 OFFCURVE",
"417 235 OFFCURVE",
"417 330 CURVE SMOOTH",
"417 336 OFFCURVE",
"417 343 OFFCURVE",
"410 349 CURVE SMOOTH",
"410 362 OFFCURVE",
"404 368 OFFCURVE",
"391 374 CURVE SMOOTH",
"385 374 OFFCURVE",
"385 374 OFFCURVE",
"379 374 CURVE SMOOTH",
"328 374 OFFCURVE",
"277 374 OFFCURVE",
"233 374 CURVE SMOOTH",
"188 374 OFFCURVE",
"144 374 OFFCURVE",
"99 374 CURVE SMOOTH",
"61 374 OFFCURVE",
"55 381 OFFCURVE",
"55 412 CURVE SMOOTH",
"55 546 OFFCURVE",
"55 679 OFFCURVE",
"55 812 CURVE SMOOTH",
"55 844 OFFCURVE",
"61 850 OFFCURVE",
"93 850 CURVE SMOOTH",
"125 850 OFFCURVE",
"150 850 OFFCURVE",
"182 850 CURVE SMOOTH",
"182 850 OFFCURVE",
"182 850 OFFCURVE",
"188 850 CURVE SMOOTH",
"214 850 OFFCURVE",
"220 844 OFFCURVE",
"220 818 CURVE SMOOTH",
"220 812 OFFCURVE",
"220 812 OFFCURVE",
"220 806 CURVE SMOOTH",
"220 723 OFFCURVE",
"220 641 OFFCURVE",
"220 552 CURVE SMOOTH",
"220 520 OFFCURVE",
"233 514 OFFCURVE",
"264 514 CURVE SMOOTH",
"302 514 OFFCURVE",
"334 514 OFFCURVE",
"372 514 CURVE SMOOTH",
"379 514 OFFCURVE",
"379 514 OFFCURVE",
"379 514 CURVE SMOOTH",
"404 514 OFFCURVE",
"410 526 OFFCURVE",
"417 546 CURVE SMOOTH",
"417 552 OFFCURVE",
"417 558 OFFCURVE",
"417 565 CURVE SMOOTH",
"417 647 OFFCURVE",
"417 729 OFFCURVE",
"417 812 CURVE SMOOTH",
"417 844 OFFCURVE",
"423 850 OFFCURVE",
"455 850 CURVE SMOOTH",
"486 850 OFFCURVE",
"512 850 OFFCURVE",
"537 850 CURVE SMOOTH",
"543 850 OFFCURVE",
"543 850 OFFCURVE",
"550 850 CURVE SMOOTH",
"569 850 OFFCURVE",
"581 844 OFFCURVE",
"581 818 CURVE SMOOTH",
"581 812 OFFCURVE",
"581 806 OFFCURVE",
"581 793 CURVE SMOOTH",
"581 672 OFFCURVE",
"581 552 OFFCURVE",
"581 425 CURVE",
"581 425 OFFCURVE",
"581 425 OFFCURVE",
"581 425 CURVE"
);
}
);
width = 636;
}
);
leftKerningGroup = "30";
rightKerningGroup = "30";
unicode = 0034;
},
{
glyphname = "five";
lastChange = "2013-07-19 15:27:22 -0500";
layers = (
{
layerId = "473527B4-5F59-4C8B-BB4C-D011658D887A";
name = "Regular";
paths = (
{
closed = 1;
nodes = (
"364 850 OFFCURVE",
"426 850 OFFCURVE",
"489 850 CURVE SMOOTH",
"521 850 OFFCURVE",
"534 844 OFFCURVE",
"534 806 CURVE SMOOTH",
"534 781 OFFCURVE",
"534 756 OFFCURVE",
"534 730 CURVE SMOOTH",
"534 724 OFFCURVE",
"534 718 OFFCURVE",
"534 718 CURVE SMOOTH",
"534 699 OFFCURVE",
"521 686 OFFCURVE",
"502 686 CURVE SMOOTH",
"496 686 OFFCURVE",
"496 686 OFFCURVE",
"489 686 CURVE SMOOTH",
"420 686 OFFCURVE",
"345 686 OFFCURVE",
"275 686 CURVE SMOOTH",
"244 686 OFFCURVE",
"231 674 OFFCURVE",
"231 642 CURVE SMOOTH",
"231 623 OFFCURVE",
"231 604 OFFCURVE",
"231 586 CURVE SMOOTH",
"231 586 OFFCURVE",
"231 579 OFFCURVE",
"238 573 CURVE SMOOTH",
"238 560 OFFCURVE",
"244 554 OFFCURVE",
"256 554 CURVE SMOOTH",
"263 554 OFFCURVE",
"269 554 OFFCURVE",
"275 554 CURVE SMOOTH",
"301 548 OFFCURVE",
"326 548 OFFCURVE",
"351 548 CURVE SMOOTH",
"395 548 OFFCURVE",
"439 535 OFFCURVE",
"477 510 CURVE SMOOTH",
"521 479 OFFCURVE",
"552 441 OFFCURVE",
"578 397 CURVE SMOOTH",
"609 334 OFFCURVE",
"615 264 OFFCURVE",
"590 195 CURVE SMOOTH",
"559 113 OFFCURVE",
"508 63 OFFCURVE",
"433 31 CURVE SMOOTH",
"364 0 OFFCURVE",
"288 0 OFFCURVE",
"219 31 CURVE SMOOTH",
"137 69 OFFCURVE",
"86 126 OFFCURVE",
"61 214 CURVE SMOOTH",
"61 227 OFFCURVE",
"55 239 OFFCURVE",
"55 252 CURVE SMOOTH",
"55 271 OFFCURVE",
"61 283 OFFCURVE",
"80 283 CURVE SMOOTH",
"86 283 OFFCURVE",
"93 283 OFFCURVE",
"99 283 CURVE SMOOTH",
"124 283 OFFCURVE",
"149 283 OFFCURVE",
"181 283 CURVE SMOOTH",
"206 283 OFFCURVE",
"212 277 OFFCURVE",
"225 252 CURVE SMOOTH",
"231 227 OFFCURVE",
"250 208 OFFCURVE",
"269 189 CURVE SMOOTH",
"313 164 OFFCURVE",
"370 170 OFFCURVE",
"401 201 CURVE SMOOTH",
"426 227 OFFCURVE",
"439 252 OFFCURVE",
"439 283 CURVE SMOOTH",
"439 327 OFFCURVE",
"401 371 OFFCURVE",
"351 384 CURVE SMOOTH",
"338 384 OFFCURVE",
"326 384 OFFCURVE",
"319 384 CURVE SMOOTH",
"250 384 OFFCURVE",
"175 384 OFFCURVE",
"105 384 CURVE SMOOTH",
"74 384 OFFCURVE",
"68 397 OFFCURVE",
"68 428 CURVE SMOOTH",
"68 554 OFFCURVE",
"68 680 OFFCURVE",
"68 812 CURVE SMOOTH",
"68 844 OFFCURVE",
"74 850 OFFCURVE",
"105 850 CURVE SMOOTH",
"168 850 OFFCURVE",
"238 850 OFFCURVE",
"301 850 CURVE SMOOTH"
);
}
);
width = 661;
}
);
leftKerningGroup = "30";
rightKerningGroup = "30";
unicode = 0035;
},
{
glyphname = "six";
lastChange = "2013-07-19 15:27:24 -0500";
layers = (
{
layerId = "473527B4-5F59-4C8B-BB4C-D011658D887A";
name = "Regular";
paths = (
{
closed = 1;
nodes = (
"55 475 OFFCURVE",
"55 519 OFFCURVE",
"55 569 CURVE SMOOTH",
"55 631 OFFCURVE",
"74 694 OFFCURVE",
"118 744 CURVE SMOOTH",
"161 800 OFFCURVE",
"224 831 OFFCURVE",
"293 838 CURVE SMOOTH",
"368 850 OFFCURVE",
"436 831 OFFCURVE",
"499 781 CURVE SMOOTH",
"555 738 OFFCURVE",
"586 681 OFFCURVE",
"599 606 CURVE SMOOTH",
"599 600 OFFCURVE",
"599 594 OFFCURVE",
"599 588 CURVE SMOOTH",
"599 581 OFFCURVE",
"593 575 OFFCURVE",
"580 569 CURVE SMOOTH",
"580 569 OFFCURVE",
"580 569 OFFCURVE",
"580 569 CURVE SMOOTH",
"543 569 OFFCURVE",
"505 569 OFFCURVE",
"468 569 CURVE SMOOTH",
"449 569 OFFCURVE",
"436 581 OFFCURVE",
"436 594 CURVE SMOOTH",
"430 619 OFFCURVE",
"418 631 OFFCURVE",
"399 650 CURVE SMOOTH",
"355 694 OFFCURVE",
"280 688 OFFCURVE",
"243 638 CURVE SMOOTH",
"230 619 OFFCURVE",
"218 594 OFFCURVE",
"218 563 CURVE SMOOTH",
"218 550 OFFCURVE",
"230 544 OFFCURVE",
"243 544 CURVE SMOOTH",
"255 544 OFFCURVE",
"261 544 OFFCURVE",
"274 550 CURVE SMOOTH",
"336 563 OFFCURVE",
"405 550 OFFCURVE",
"461 519 CURVE SMOOTH",
"511 494 OFFCURVE",
"549 450 OFFCURVE",
"574 400 CURVE SMOOTH",
"593 369 OFFCURVE",
"599 331 OFFCURVE",
"599 294 CURVE SMOOTH",
"605 238 OFFCURVE",
"593 181 OFFCURVE",
"561 131 CURVE SMOOTH",
"518 69 OFFCURVE",
"461 31 OFFCURVE",
"386 13 CURVE SMOOTH",
"330 0 OFFCURVE",
"268 6 OFFCURVE",
"218 31 CURVE SMOOTH",
"124 75 OFFCURVE",
"74 150 OFFCURVE",
"55 250 CURVE SMOOTH",
"55 256 OFFCURVE",
"55 269 OFFCURVE",
"55 281 CURVE SMOOTH",
"55 331 OFFCURVE",
"55 375 OFFCURVE",
"55 425 CURVE SMOOTH"
);
},
{
closed = 1;
nodes = (
"218 219 OFFCURVE",
"268 169 OFFCURVE",
"330 169 CURVE SMOOTH",
"386 175 OFFCURVE",
"436 219 OFFCURVE",
"436 281 CURVE SMOOTH",
"436 344 OFFCURVE",
"386 388 OFFCURVE",
"330 388 CURVE SMOOTH",
"268 388 OFFCURVE",
"218 338 OFFCURVE",
"218 281 CURVE SMOOTH"
);
}
);
width = 665;
}
);
leftKerningGroup = "30";
rightKerningGroup = "30";
unicode = 0036;
},
{
glyphname = "seven";
lastChange = "2013-07-19 15:27:29 -0500";
layers = (
{
layerId = "473527B4-5F59-4C8B-BB4C-D011658D887A";
name = "Regular";
paths = (
{
closed = 1;
nodes = (
"439 850 OFFCURVE",
"527 850 OFFCURVE",
"609 850 CURVE SMOOTH",
"647 850 OFFCURVE",
"653 837 OFFCURVE",
"653 806 CURVE SMOOTH",
"653 781 OFFCURVE",
"653 756 OFFCURVE",
"653 730 CURVE SMOOTH",
"653 711 OFFCURVE",
"641 699 OFFCURVE",
"628 680 CURVE SMOOTH",
"603 636 OFFCURVE",
"584 598 OFFCURVE",
"559 560 CURVE SMOOTH",
"534 516 OFFCURVE",
"508 472 OFFCURVE",
"483 428 CURVE SMOOTH",
"458 384 OFFCURVE",
"433 340 OFFCURVE",
"408 302 CURVE SMOOTH",
"370 233 OFFCURVE",
"332 170 OFFCURVE",
"294 107 CURVE SMOOTH",
"282 82 OFFCURVE",
"263 50 OFFCURVE",
"250 25 CURVE SMOOTH",
"238 13 OFFCURVE",
"225 0 OFFCURVE",
"206 0 CURVE SMOOTH",
"162 0 OFFCURVE",
"124 0 OFFCURVE",
"80 0 CURVE SMOOTH",
"74 0 OFFCURVE",
"68 6 OFFCURVE",
"61 6 CURVE SMOOTH",
"55 13 OFFCURVE",
"55 19 OFFCURVE",
"55 25 CURVE SMOOTH",
"61 31 OFFCURVE",
"68 44 OFFCURVE",
"74 57 CURVE SMOOTH",
"99 107 OFFCURVE",
"131 157 OFFCURVE",
"156 208 CURVE SMOOTH",
"200 271 OFFCURVE",
"238 340 OFFCURVE",
"275 409 CURVE SMOOTH",
"319 485 OFFCURVE",
"364 560 OFFCURVE",
"408 636 CURVE SMOOTH",
"414 642 OFFCURVE",
"414 649 OFFCURVE",
"420 655 CURVE SMOOTH",
"426 667 OFFCURVE",
"420 680 OFFCURVE",
"408 680 CURVE SMOOTH",
"401 680 OFFCURVE",
"395 680 OFFCURVE",
"389 680 CURVE SMOOTH",
"288 686 OFFCURVE",
"194 686 OFFCURVE",
"99 686 CURVE SMOOTH",
"93 686 OFFCURVE",
"86 686 OFFCURVE",
"74 686 CURVE SMOOTH",
"68 686 OFFCURVE",
"61 693 OFFCURVE",
"55 705 CURVE SMOOTH",
"55 711 OFFCURVE",
"55 718 OFFCURVE",
"55 718 CURVE SMOOTH",
"55 749 OFFCURVE",
"55 781 OFFCURVE",
"55 812 CURVE SMOOTH",
"55 812 OFFCURVE",
"55 812 OFFCURVE",
"55 819 CURVE SMOOTH",
"55 837 OFFCURVE",
"68 844 OFFCURVE",
"86 850 CURVE SMOOTH",
"93 850 OFFCURVE",
"93 850 OFFCURVE",
"99 850 CURVE SMOOTH",
"181 850 OFFCURVE",
"269 850 OFFCURVE",
"357 850 CURVE SMOOTH"
);
}
);
width = 708;
}
);
leftKerningGroup = "30";
rightKerningGroup = "30";
unicode = 0037;
},
{
glyphname = "eight";
lastChange = "2013-07-19 15:27:32 -0500";
layers = (
{
layerId = "473527B4-5F59-4C8B-BB4C-D011658D887A";
name = "Regular";
paths = (
{
closed = 1;
nodes = (
"327 0 OFFCURVE",
"296 0 OFFCURVE",
"270 6 CURVE SMOOTH",
"220 13 OFFCURVE",
"176 38 OFFCURVE",
"138 69 CURVE SMOOTH",
"94 113 OFFCURVE",
"69 164 OFFCURVE",
"56 227 CURVE SMOOTH",
"50 296 OFFCURVE",
"63 353 OFFCURVE",
"107 409 CURVE SMOOTH",
"107 416 OFFCURVE",
"113 422 OFFCURVE",
"119 428 CURVE SMOOTH",
"132 441 OFFCURVE",
"132 453 OFFCURVE",
"119 466 CURVE SMOOTH",
"113 485 OFFCURVE",
"107 497 OFFCURVE",
"100 510 CURVE SMOOTH",
"75 573 OFFCURVE",
"75 636 OFFCURVE",
"100 705 CURVE SMOOTH",
"126 762 OFFCURVE",
"170 806 OFFCURVE",
"233 831 CURVE SMOOTH",
"264 844 OFFCURVE",
"296 850 OFFCURVE",
"327 850 CURVE SMOOTH",
"359 850 OFFCURVE",
"384 850 OFFCURVE",
"409 850 CURVE SMOOTH",
"453 850 OFFCURVE",
"491 831 OFFCURVE",
"522 812 CURVE SMOOTH",
"566 787 OFFCURVE",
"598 749 OFFCURVE",
"617 699 CURVE SMOOTH",
"642 636 OFFCURVE",
"642 573 OFFCURVE",
"617 510 CURVE SMOOTH",
"610 497 OFFCURVE",
"604 485 OFFCURVE",
"598 472 CURVE SMOOTH",
"585 453 OFFCURVE",
"591 441 OFFCURVE",
"604 428 CURVE SMOOTH",
"617 403 OFFCURVE",
"629 384 OFFCURVE",
"642 359 CURVE SMOOTH",
"667 296 OFFCURVE",
"667 239 OFFCURVE",
"648 176 CURVE SMOOTH",
"623 101 OFFCURVE",
"573 50 OFFCURVE",
"497 19 CURVE SMOOTH",
"472 6 OFFCURVE",
"440 0 OFFCURVE",
"409 0 CURVE SMOOTH",
"390 0 OFFCURVE",
"377 0 OFFCURVE",
"359 0 CURVE",
"359 0 OFFCURVE",
"359 0 OFFCURVE",
"359 0 CURVE"
);
},
{
closed = 1;
nodes = (
"359 164 OFFCURVE",
"359 170 OFFCURVE",
"359 170 CURVE",
"377 170 OFFCURVE",
"390 170 OFFCURVE",
"409 170 CURVE SMOOTH",
"459 170 OFFCURVE",
"497 214 OFFCURVE",
"497 258 CURVE SMOOTH",
"497 309 OFFCURVE",
"459 346 OFFCURVE",
"415 353 CURVE SMOOTH",
"377 353 OFFCURVE",
"340 353 OFFCURVE",
"308 353 CURVE SMOOTH",
"264 346 OFFCURVE",
"226 309 OFFCURVE",
"220 264 CURVE SMOOTH",
"220 220 OFFCURVE",
"251 176 OFFCURVE",
"302 170 CURVE SMOOTH",
"321 164 OFFCURVE",
"340 164 OFFCURVE",
"359 164 CURVE"
);
},
{
closed = 1;
nodes = (
"340 686 OFFCURVE",
"314 686 OFFCURVE",
"296 680 CURVE SMOOTH",
"270 667 OFFCURVE",
"245 630 OFFCURVE",
"251 598 CURVE SMOOTH",
"251 560 OFFCURVE",
"283 529 OFFCURVE",
"327 523 CURVE SMOOTH",
"346 523 OFFCURVE",
"365 523 OFFCURVE",
"384 523 CURVE SMOOTH",
"396 523 OFFCURVE",
"415 529 OFFCURVE",
"434 535 CURVE SMOOTH",
"459 554 OFFCURVE",
"472 579 OFFCURVE",
"466 611 CURVE SMOOTH",
"466 642 OFFCURVE",
"447 667 OFFCURVE",
"415 680 CURVE SMOOTH",
"396 686 OFFCURVE",
"377 686 OFFCURVE",
"359 686 CURVE SMOOTH"
);
}
);
width = 717;
}
);
leftKerningGroup = "30";
rightKerningGroup = "30";
unicode = 0038;
},
{
glyphname = "nine";
lastChange = "2013-07-19 15:27:37 -0500";
layers = (
{
layerId = "473527B4-5F59-4C8B-BB4C-D011658D887A";
name = "Regular";
paths = (
{
closed = 1;
nodes = (
"610 378 OFFCURVE",
"610 334 OFFCURVE",
"610 283 CURVE SMOOTH",
"610 227 OFFCURVE",
"598 176 OFFCURVE",
"566 132 CURVE SMOOTH",
"541 88 OFFCURVE",
"510 57 OFFCURVE",
"466 38 CURVE SMOOTH",
"421 13 OFFCURVE",
"371 0 OFFCURVE",
"321 0 CURVE SMOOTH",
"277 6 OFFCURVE",
"233 19 OFFCURVE",
"189 44 CURVE SMOOTH",
"132 76 OFFCURVE",
"94 120 OFFCURVE",
"75 183 CURVE SMOOTH",
"63 201 OFFCURVE",
"56 227 OFFCURVE",
"56 252 CURVE SMOOTH",
"63 264 OFFCURVE",
"63 271 OFFCURVE",
"81 277 CURVE SMOOTH",
"88 277 OFFCURVE",
"88 277 OFFCURVE",
"94 277 CURVE SMOOTH",
"126 277 OFFCURVE",
"157 277 OFFCURVE",
"189 277 CURVE SMOOTH",
"201 277 OFFCURVE",
"214 277 OFFCURVE",
"220 264 CURVE SMOOTH",
"226 258 OFFCURVE",
"226 246 OFFCURVE",
"226 239 CURVE SMOOTH",
"245 201 OFFCURVE",
"270 183 OFFCURVE",
"308 170 CURVE SMOOTH",
"352 157 OFFCURVE",
"403 183 OFFCURVE",
"421 220 CURVE SMOOTH",
"434 239 OFFCURVE",
"440 258 OFFCURVE",
"440 283 CURVE SMOOTH",
"440 296 OFFCURVE",
"434 309 OFFCURVE",
"415 302 CURVE SMOOTH",
"403 302 OFFCURVE",
"390 302 OFFCURVE",
"377 296 CURVE SMOOTH",
"302 283 OFFCURVE",
"239 302 OFFCURVE",
"176 340 CURVE SMOOTH",
"107 390 OFFCURVE",
"69 453 OFFCURVE",
"56 535 CURVE SMOOTH",
"50 598 OFFCURVE",
"63 655 OFFCURVE",
"94 705 CURVE SMOOTH",
"138 781 OFFCURVE",
"207 831 OFFCURVE",
"302 844 CURVE SMOOTH",
"384 850 OFFCURVE",
"453 831 OFFCURVE",
"510 774 CURVE SMOOTH",
"566 730 OFFCURVE",
"598 667 OFFCURVE",
"604 598 CURVE SMOOTH",
"610 586 OFFCURVE",
"610 573 OFFCURVE",
"610 560 CURVE SMOOTH",
"610 516 OFFCURVE",
"610 466 OFFCURVE",
"610 422 CURVE SMOOTH"
);
},
{
closed = 1;
nodes = (
"390 460 OFFCURVE",
"440 510 OFFCURVE",
"440 567 CURVE SMOOTH",
"440 630 OFFCURVE",
"390 680 OFFCURVE",
"333 680 CURVE SMOOTH",
"270 680 OFFCURVE",
"220 623 OFFCURVE",
"220 567 CURVE SMOOTH",
"220 510 OFFCURVE",
"270 460 OFFCURVE",
"333 460 CURVE SMOOTH"
);
}
);
width = 665;
}
);
leftKerningGroup = "30";
rightKerningGroup = "30";
unicode = 0039;
},
